<?xml version="1.0" encoding="utf-8"?>
<!-- Generator: Adobe Illustrator 23.0.3, SVG Export Plug-In . SVG Version: 6.00 Build 0)  -->
<svg version="1.1" id="Layer_1" xmlns="http://www.w3.org/2000/svg" xmlns:xlink="http://www.w3.org/1999/xlink" x="0px" y="0px"
	 viewBox="0 0 70 70" style="enable-background:new 0 0 70 70;" xml:space="preserve">
<style type="text/css">
	.st0{fill-rule:evenodd;clip-rule:evenodd;fill:#FFFFFF;}
</style>
<g>
	<g>
		<path class="st0" d="M51.3,36.3c0-1.3,0.3-3.6-0.3-4.4c-0.7-1.1-3.4-0.8-5.1-0.7c0-3.6,0.8-9.9-1.1-11.7c-1.6-1.6-6.9-1-10-0.9
			c-0.6-2.3-4.5-2.4-5,0c-4.1,0-9.6-0.8-10.8,2.1c-0.8,1.8-0.3,5.4-0.3,7.8v14c0,1.9-0.4,4.8,0.2,6.3c0.5,1.4,1.6,1.9,3.1,2.4h13
			c0.5,0.5,0.3,1.2,0.8,1.6c1.2,0.8,4.7,0.3,6.5,0.3c2.1,0,7.7,0.4,8.6-0.6c0.7-0.9,0.4-3.3,0.4-4.8V36.3z M32.1,18.6h0.5
			c0.2,0.2,0.3,0.4,0.5,0.5c0.1,0.3,0.1,0.6-0.1,0.8c-0.1,0.2-0.2,0.2-0.4,0.4h-0.7c-0.3-0.4-0.4-0.5-0.5-1.2
			C31.7,19,31.9,18.8,32.1,18.6z M35.4,31.9c-0.6,0.9-0.4,3.1-0.4,4.5v11.2c-3.6,0-9.2,0.6-12.3-0.2c-0.8-1.4-0.3-4.9-0.3-6.9
			c0-5.9,0.1-11.9,0.1-17.8c1-0.7,3.7-0.4,5.3-0.4V24h9.1v-1.7h4.8c0.2,0.1,0.3,0.2,0.5,0.4c0,2.9,0.1,5.7,0.1,8.6
			C40.3,31.2,36.3,30.7,35.4,31.9z M42.3,49.3h-3.6v-3.7h3.6V49.3z M42.3,43.8h-3.6v-3.6h3.6V43.8z M47.7,49.3h-3.6v-3.6h3.6V49.3z
			 M47.7,43.8h-3.6v-3.6h3.6V43.8z M47.7,38.5h-9v-3.6h9V38.5z M27.8,25.8h-3.6v7.2h3.6V25.8z M29.6,33.1h3.6v-5.4h-3.6V33.1z
			 M29.6,36.7c-3.3-0.1-4.9,4.3-2.5,6.3c2.3,1.9,6.1,0.5,6-2.7h-3.6V36.7z"/>
	</g>
</g>
</svg>
