<?xml version="1.0" encoding="utf-8"?>
<!-- Generator: Adobe Illustrator 23.0.3, SVG Export Plug-In . SVG Version: 6.00 Build 0)  -->
<svg version="1.1" id="Layer_1" xmlns="http://www.w3.org/2000/svg" xmlns:xlink="http://www.w3.org/1999/xlink" x="0px" y="0px"
	 viewBox="0 0 70 70" style="enable-background:new 0 0 70 70;" xml:space="preserve">
<style type="text/css">
	.st0{fill-rule:evenodd;clip-rule:evenodd;fill:#FFFFFF;}
</style>
<g>
	<g>
		<path class="st0" d="M34.3,51.8v-0.2h0v-0.1h0c0-0.1,0-0.1,0-0.2c0,0-0.1,0-0.1,0v-0.1c0,0-0.1,0-0.1,0V51c-0.1,0-0.1-0.1-0.2-0.1
			c0,0,0-0.1,0-0.1h-0.1c0,0,0-0.1,0-0.1c0,0-0.1,0-0.1,0v0c-0.2-0.1-0.4-0.1-0.6-0.2H20.5c-0.6,0-1.1,0-1.5-0.2c0,0,0-0.1,0-0.1
			h-0.1c-0.1-0.1-0.1-0.1-0.2-0.2c-0.1-0.1-0.1-0.1-0.2-0.2c-0.1-0.2-0.2-0.5-0.3-0.7v-27c0-0.7-0.1-1.6,0.2-2c0,0,0.1,0,0.1,0v-0.1
			c0,0,0.1-0.1,0.1-0.1c0.1-0.1,0.2-0.2,0.2-0.3H19c0,0,0-0.1,0-0.1c0.1,0,0.2-0.1,0.2-0.1v0h0.1v0c0.3-0.1,1,0,1.4,0H40
			c0.6,0,1.3,0,1.6,0.2c0,0,0,0.1,0,0.1h0.1c0,0.1,0.1,0.1,0.1,0.2c0.1,0.1,0.2,0.1,0.2,0.2c0.1,0.2,0.2,0.5,0.3,0.7v4.8
			c0,0.7-0.1,1.6,0.2,2l0.1,0.1v0.1c0,0,0.1,0,0.1,0c0,0.1,0.1,0.1,0.1,0.2H43c0,0,0,0.1,0,0.1h0.1v0c0.2,0.1,0.4,0.2,0.8,0.2h0.3v0
			c0.1,0,0.2,0,0.2,0v0c0.1,0,0.1,0,0.2,0c0.1-0.1,0.3-0.3,0.4-0.4v-0.1c0,0,0.1,0,0.1,0c0-0.1,0-0.1,0-0.2h0
			c0.1-0.3,0.1-0.9,0.1-1.3v-6.6h0v-0.2h0V19h0v-0.1h0v-0.1h0v-0.1h0c0-0.1-0.1-0.2-0.1-0.2h0v-0.1h0c0-0.1,0-0.1,0-0.2
			c0,0-0.1,0-0.1,0V18c0,0-0.1,0-0.1,0v-0.1c-0.1,0-0.1-0.1-0.2-0.1v-0.1c0,0-0.1,0-0.1,0c-0.1-0.1-0.2-0.2-0.2-0.3h-0.1
			c0-0.1-0.1-0.1-0.1-0.2h-0.1c0,0,0-0.1,0-0.1c0,0-0.1,0-0.1,0v0c-0.1,0-0.1,0-0.2,0c0,0,0-0.1,0-0.1c-0.1,0-0.1,0-0.2,0v0
			c-0.1,0-0.1,0-0.2,0v0c-0.1,0-0.2,0-0.3,0v0h-0.1v0c-0.2,0-0.4,0-0.6,0c-0.4-0.1-1,0-1.5,0H18.4c-0.1,0.1-0.2,0-0.4,0v0h-0.2v0
			h-0.1v0c-0.1,0-0.2,0-0.3,0v0c-0.1,0-0.1,0-0.2,0v0h-0.1c0,0,0,0.1,0,0.1c-0.1,0-0.2,0.1-0.2,0.1v0c0,0-0.1,0-0.1,0
			c0,0,0,0.1,0,0.1h-0.1c0,0.1-0.1,0.1-0.1,0.2h-0.1c0,0,0,0.1,0,0.1c-0.1,0.1-0.2,0.2-0.3,0.2v0.1c-0.1,0-0.1,0.1-0.2,0.1V18
			c0,0-0.1,0-0.1,0v0.1c0,0-0.1,0-0.1,0c0,0.1,0,0.1,0,0.2h0v0.1h0c0,0.1-0.1,0.2-0.1,0.2h0c-0.2,0.5-0.2,1.2-0.2,1.9v30.1h0v0.2h0
			V51h0v0.1h0v0.1h0v0.1h0c0,0.1,0.1,0.2,0.1,0.2h0v0.1h0c0,0.1,0,0.1,0,0.2c0,0,0.1,0,0.1,0V52c0,0,0.1,0,0.1,0v0.1
			c0.1,0,0.1,0.1,0.2,0.1v0.1c0,0,0.1,0,0.1,0c0.1,0.1,0.2,0.2,0.2,0.3h0.1c0,0.1,0.1,0.1,0.1,0.2h0.1c0,0,0,0.1,0,0.1h0.1
			c0,0,0,0.1,0,0.1c0.1,0,0.2,0.1,0.2,0.1c0,0,0,0.1,0,0.1h0.1v0c0.1,0,0.1,0,0.2,0v0h0.1v0c0.1,0,0.2,0,0.3,0v0h0.2v0h0.4v0h2.2
			c0.2,0,0.3,0,0.5,0c0.5,0.1,1.3,0,1.8,0h8.3c0.7,0,1.7,0.1,2.2-0.1v0h0.1c0,0,0-0.1,0-0.1h0.1c0,0,0-0.1,0-0.1h0.1
			c0-0.1,0.1-0.1,0.1-0.2c0,0,0.1,0,0.1,0v-0.1c0,0,0.1,0,0.1,0c0,0,0-0.1,0-0.1h0c0-0.1,0-0.1,0-0.2h0
			C34.3,52.4,34.4,51.9,34.3,51.8L34.3,51.8z M39,26.7L39,26.7L39,26.7c0.1-0.1,0.1-0.1,0.1-0.1h0.1c0,0,0.1-0.1,0.1-0.1h0.1v0
			c0,0,0.1,0,0.1,0v-0.1c0,0,0.1-0.1,0.1-0.1c0.1-0.2,0.2-0.4,0.2-0.6c0.1-0.2-0.1-0.8-0.2-0.9c0,0-0.1,0-0.1,0v-0.1
			c0,0-0.1-0.1-0.1-0.1v-0.1h0c0,0,0-0.1,0-0.1h-0.1c0,0-0.1-0.1-0.1-0.1c-0.1-0.1-0.4-0.2-0.6-0.2H22v0c-0.1,0-0.2,0-0.3,0v0h-0.1
			v0h-0.1c-0.2,0.1-0.3,0.3-0.5,0.4c0,0.1,0,0.1,0,0.2h0c0,0.1,0,0.1,0,0.2h0c0,0.1-0.1,0.6-0.1,0.7h0v0.2h0v0.1h0
			c0,0.1,0,0.1,0,0.2h0c0,0.1,0,0.1,0,0.2c0.1,0.1,0.2,0.1,0.2,0.2c0,0.1,0.1,0.1,0.1,0.2c0.4,0.3,0.9,0.2,1.5,0.2h14.8
			C38.2,26.8,38.7,26.8,39,26.7z M53.6,50.4c-1-1-2-2-3-3l-0.8-0.8c-0.1-0.1-0.3-0.2-0.4-0.4c0.1-0.1,0.1-0.2,0.2-0.3h0v-0.1h0v-0.1
			c0,0,0.1,0,0.1,0c0-0.1,0.1-0.2,0.1-0.2h0v-0.1h0v-0.1c0,0,0.1,0,0.1,0v-0.1h0v-0.1h0V45h0v-0.1h0v-0.1h0v-0.1h0v-0.1h0
			c0-0.1,0.1-0.2,0.1-0.2h0v-0.1h0v-0.1h0v-0.1h0v-0.1h0V44h0v-0.1h0v-0.1h0v-0.1h0c0.1-0.2,0.1-0.5,0.2-0.7h0
			c0.1-0.5,0.2-0.9,0.3-1.4v-0.5c0-0.1,0.1-1,0-1.2h0v-0.5h0v-0.3h0v-0.2h0v-0.2h0v-0.2h0v-0.2h0v-0.2h0V38h0v-0.2h0v-0.1h0v-0.1h0
			v-0.1h0v-0.1h0c0-0.1,0-0.2,0-0.2h0V37h0v-0.1h0v-0.1h0v-0.1h0c0-0.1-0.1-0.2-0.1-0.2h0v-0.1h0v-0.1h0v-0.1h0v-0.1h0V36h0V36h0
			v-0.1h0v-0.1h0v-0.1c0,0-0.1,0-0.1,0c0-0.1,0-0.1,0-0.2c0,0-0.1,0-0.1,0c0-0.1,0-0.1,0-0.2h0c0,0,0-0.1,0-0.1c0,0-0.1,0-0.1,0
			v-0.1c0,0-0.1,0-0.1,0V35c0,0-0.1-0.1-0.1-0.1v-0.1l-0.1-0.1v-0.1c0,0-0.1-0.1-0.1-0.1v-0.1c-0.1-0.1-0.1-0.1-0.2-0.2v-0.1
			c-0.1-0.1-0.2-0.2-0.4-0.3v-0.1c0,0-0.1,0-0.1,0c-0.1-0.1-0.2-0.2-0.2-0.3h-0.1c-0.1-0.1-0.2-0.2-0.3-0.4h-0.1
			c-0.1-0.1-0.1-0.1-0.2-0.2h-0.1l-0.1-0.1c0,0-0.1,0-0.1,0c0,0,0-0.1,0-0.1h-0.1c0,0,0-0.1,0-0.1h-0.1c0,0-0.1-0.1-0.1-0.1H47
			c0,0,0-0.1,0-0.1c-0.1,0-0.1,0-0.2,0c0,0,0-0.1,0-0.1c0,0-0.1,0-0.1,0v0c-0.1,0-0.1,0-0.2,0c0,0,0-0.1,0-0.1h-0.1v0h-0.1v0h-0.1v0
			h-0.1v0h-0.1v0H46v0h-0.1v0h-0.1v0c-0.1,0-0.2-0.1-0.2-0.1v0h-0.1v0c-0.1,0-0.1,0-0.2,0v0h-0.1v0h-0.1v0c-0.1,0-0.2-0.1-0.4-0.1
			c-1-0.4-2.2-0.5-3.6-0.5c-0.1,0.1-0.3,0-0.4,0c-0.1,0,0,0,0,0h-0.3v0h-0.3v0h-0.2v0h-0.2v0h-0.2v0h-0.2v0h-0.2
			c-0.3,0.1-0.6,0.2-1,0.3v0h-0.1v0H38v0H38v0h-0.1v0c-0.1,0-0.2,0.1-0.2,0.1v0h-0.1v0h-0.1v0h-0.1v0h-0.1v0h-0.1v0h-0.1v0H37
			c0,0,0,0.1,0,0.1c-0.1,0-0.2,0.1-0.2,0.1v0c0,0-0.1,0-0.1,0c0,0,0,0.1,0,0.1c-0.1,0-0.1,0-0.2,0c0,0,0,0.1,0,0.1h-0.1
			c0,0-0.1,0.1-0.1,0.1h-0.1c0,0,0,0.1,0,0.1H36c0,0,0,0.1,0,0.1c0,0-0.1,0-0.1,0c0,0.1-0.1,0.1-0.1,0.2h-0.1c0,0.1-0.1,0.1-0.1,0.2
			h-0.1c-0.1,0.1-0.2,0.2-0.3,0.4h-0.1c-0.1,0.1-0.2,0.2-0.2,0.3c0,0-0.1,0-0.1,0v0.1c-0.1,0.1-0.2,0.2-0.4,0.3v0.1c0,0-0.1,0-0.1,0
			v0c0,0-0.1,0.1-0.1,0.1v0.1c0,0-0.1,0.1-0.1,0.1v0.1L34,34.8v0.1c0,0-0.1,0.1-0.1,0.1V35c0,0-0.1,0-0.1,0c0,0,0,0.1,0,0.1h0v0.1
			c0,0-0.1,0-0.1,0c0,0.1,0,0.1,0,0.2c0,0-0.1,0-0.1,0c0,0.1,0,0.1,0,0.2c0,0-0.1,0-0.1,0v0.1h0v0.1h0V36h0V36h0v0.1h0v0.1
			c0,0-0.1,0-0.1,0c0,0.1,0,0.1,0,0.2h0v0.1h0c0,0.1,0,0.1,0,0.2h0c-0.2,0.5-0.3,1-0.5,1.6v0.2c-0.1,0.2-0.1,0.5-0.2,0.6
			c0,0.3,0,0.5,0,0.8c0,0.2-0.1,1.1,0,1.3h0c0,0.3,0,0.5,0,0.8h0v0.3h0c0,0.1,0,0.3,0,0.4h0c0,0.1,0,0.2,0,0.4h0V43h0v0.2h0v0.2h0
			v0.1h0v0.1h0v0.1h0v0.1h0v0.1h0c0,0.1,0,0.2,0,0.2h0v0.1h0v0.1h0c0,0.1,0,0.1,0,0.2h0v0.1h0c0,0.1,0.1,0.2,0.1,0.2h0V45h0V45h0
			v0.1h0v0.1h0v0.1h0v0.1c0,0,0.1,0,0.1,0c0,0.1,0.1,0.2,0.1,0.2c0,0,0.1,0,0.1,0c0,0.1,0,0.1,0,0.2h0c0,0,0,0.1,0,0.1
			c0,0,0.1,0,0.1,0v0.1h0c0,0,0,0.1,0,0.1c0,0,0.1,0,0.1,0v0.1c0,0,0.1,0,0.1,0c0,0,0,0.1,0,0.1c0,0,0.1,0.1,0.1,0.1v0.1
			c0,0,0.1,0,0.1,0c0,0,0,0.1,0,0.1c0.1,0.1,0.1,0.1,0.2,0.2V47c0.1,0.1,0.2,0.2,0.3,0.3v0.1c0.1,0,0.1,0.1,0.2,0.1
			c0.1,0.1,0.2,0.2,0.3,0.3h0.1c0.1,0.1,0.2,0.2,0.2,0.3h0.1c0,0.1,0.1,0.1,0.1,0.2h0.1c0,0,0,0.1,0,0.1h0c0,0,0,0.1,0,0.1h0.1
			c0,0,0.1,0.1,0.1,0.1h0.1c0,0,0,0.1,0,0.1c0,0,0.1,0,0.1,0v0h0.1c0,0,0,0.1,0,0.1h0.1c0,0,0,0.1,0,0.1h0.1c0,0,0,0.1,0,0.1
			c0.1,0,0.1,0,0.2,0c0,0,0,0.1,0,0.1H37v0h0.1v0h0.1v0h0.1v0h0.1v0h0.1v0h0.1v0c0.1,0,0.2,0.1,0.2,0.1v0h0.1v0H38v0
			c0.4,0.1,0.9,0.3,1.3,0.4h0.2v0h0.2v0h0.3c0.5,0.1,1.6,0.1,2,0h0.4v0h0.4v0H43v0h0.2v0h0.2v0h0.2v0h0.2v0c0.1,0,0.2,0,0.4,0v0h0.2
			v0h0.1v0c0.1,0,0.2,0,0.3,0v0H45v0h0.1v0h0.1v0h0.1v0h0.1v0h0.1v0h0.1v0h0.1v0h0.1v0c0.1,0,0.2-0.1,0.2-0.1v0h0.1v0h0.1v0h0.1v0
			h0.1v0h0.1v0h0.1v0h0.1c0,0,0-0.1,0-0.1c0.1,0,0.1,0,0.2,0c0,0,0-0.1,0-0.1H47v0c0,0,0.1,0,0.1,0c0,0,0-0.1,0-0.1
			c0.1-0.1,0.2-0.1,0.3-0.2c0.2,0.1,0.3,0.2,0.4,0.4c0.3,0.3,0.6,0.6,0.9,0.9c0.2,0.2,0.5,0.4,0.7,0.6c0.9,0.9,1.7,1.8,2.6,2.6
			c0.1,0.1,0.2,0.2,0.3,0.3l0.1,0.1c0.1,0,0.2,0.1,0.2,0.1v0h0.1v0c0.3,0.1,1-0.1,1.1-0.2v0c0,0,0.1,0,0.1,0c0,0,0-0.1,0-0.1h0.1
			c0,0,0-0.1,0-0.1c0.1,0,0.1-0.1,0.2-0.1v-0.1c0,0,0.1,0,0.1,0c0-0.1,0-0.1,0-0.2h0c0-0.1,0-0.1,0-0.2h0c0-0.1,0-0.2,0-0.3
			C54.8,51.3,54,50.7,53.6,50.4z M48,42.9c0,0.1,0,0.2,0,0.2h0c0,0.1-0.1,0.2-0.1,0.2h0v0.1h0v0.1h0v0.1h0v0.1h0v0.1h0v0.1h0v0.1
			c0,0-0.1,0-0.1,0c0,0.1,0,0.1,0,0.2h0c0,0,0,0.1,0,0.1c0,0-0.1,0-0.1,0v0.1c0,0-0.1,0.1-0.1,0.1v0.1c0,0-0.1,0.1-0.1,0.1v0.1
			c-0.1,0-0.1,0.1-0.2,0.1v0.1c-0.1,0.1-0.2,0.2-0.4,0.3v0.1c-0.1,0-0.1,0.1-0.2,0.1c-0.1,0.1-0.2,0.2-0.3,0.4H46
			c0,0-0.1,0.1-0.1,0.1h-0.1c0,0-0.1,0.1-0.1,0.1h-0.1c0,0-0.1,0.1-0.1,0.1h-0.1c0,0,0,0.1,0,0.1c0,0-0.1,0-0.1,0v0
			c-0.1,0-0.1,0-0.2,0c0,0,0,0.1,0,0.1c-0.1,0-0.2,0.1-0.2,0.1c0,0,0,0.1,0,0.1c-0.1,0-0.2,0.1-0.4,0.1v0c-0.1,0-0.1,0-0.2,0v0h-0.1
			v0h-0.1v0c-0.1,0-0.2,0-0.2,0v0h-0.1v0h-0.1v0h-0.1v0c-0.2,0-0.3,0.1-0.5,0.1c-1.1,0.3-2.6,0.1-3.5-0.2c-0.1,0-0.2,0-0.2,0v0
			c-0.1,0-0.1,0-0.2,0v0c-0.1,0-0.1,0-0.2,0v0h-0.1v0h-0.1c0,0,0-0.1,0-0.1h-0.1v0h-0.1v0h-0.1v0h-0.1v0h-0.1c0,0,0-0.1,0-0.1
			c-0.1,0-0.1,0-0.2,0v0c0,0-0.1,0-0.1,0c0,0,0-0.1,0-0.1h-0.1c0,0-0.1-0.1-0.1-0.1h-0.1c0,0,0-0.1,0-0.1h-0.1
			c0-0.1-0.1-0.1-0.1-0.2h-0.1c0,0,0-0.1,0-0.1c-0.1-0.1-0.3-0.3-0.4-0.3c-0.1-0.2-0.2-0.2-0.3-0.4c0,0-0.1-0.1-0.1-0.1h0v-0.1
			l-0.1-0.1v-0.1c0,0-0.1-0.1-0.1-0.1v-0.1c0,0-0.1-0.1-0.1-0.1v-0.1c0,0-0.1,0-0.1,0c0,0,0-0.1,0-0.1h0c0-0.1,0-0.1,0-0.2
			c0,0-0.1,0-0.1,0v-0.1h0v-0.1h0v-0.1h0v-0.1h0v-0.1h0v-0.1h0v-0.1h0c0-0.1-0.1-0.2-0.1-0.2h0V43h0v-0.1h0v-0.1h0v-0.1h0v-0.1h0
			v-0.1h0v-0.2h0v-0.2h0V42h0v-0.2h0v-0.2h0c0-0.3,0-0.6,0-0.9c0-0.1-0.1-0.2,0-0.3h0c0-0.3,0-0.6,0-0.9c0.1-0.3,0.2-0.7,0.2-1h0
			c0-0.1,0-0.2,0-0.2h0v-0.1h0V38h0v-0.1h0v-0.1h0c0-0.1,0.1-0.2,0.1-0.2h0v-0.1h0c0-0.1,0.1-0.2,0.1-0.2c0,0,0.1,0,0.1,0
			c0-0.1,0.1-0.2,0.1-0.2c0,0,0.1,0,0.1,0v-0.1h0c0,0,0-0.1,0-0.1c0,0,0.1,0,0.1,0v-0.1l0.1-0.1v-0.1c0,0,0.1-0.1,0.1-0.1v-0.1
			c0.1-0.1,0.1-0.1,0.2-0.2V36c0.1-0.1,0.2-0.2,0.3-0.3c0.1-0.1,0.2-0.2,0.3-0.4h0.1c0.1-0.1,0.1-0.1,0.2-0.2c0,0,0.1,0,0.1,0
			c0,0,0-0.1,0-0.1h0.1c0,0,0.1-0.1,0.1-0.1h0.1c0,0,0-0.1,0-0.1c0,0,0.1,0,0.1,0v0c0.1,0,0.1,0,0.2,0c0,0,0-0.1,0-0.1
			c0.1,0,0.1,0,0.2,0c0,0,0-0.1,0-0.1c0.1,0,0.1,0,0.2,0v0c0.1,0,0.2-0.1,0.2-0.1v0H39v0c0.1,0,0.1,0,0.2,0v0h0.1v0h0.1v0h0.1v0h0.1
			v0h0.1v0h0.1v0c0.1,0,0.2,0,0.3,0c0.9-0.3,2.5-0.3,3.4,0c0.1,0,0.3,0.1,0.4,0.1c0.4,0.2,0.7,0.3,1.1,0.5c0,0,0,0.1,0,0.1
			c0.1,0,0.1,0,0.2,0c0,0,0,0.1,0,0.1c0.1,0,0.1,0,0.2,0v0c0,0,0.1,0,0.1,0c0,0,0,0.1,0,0.1h0.1c0,0,0.1,0.1,0.1,0.1h0.1l0.1,0.1H46
			c0.1,0.1,0.1,0.1,0.2,0.2h0.1c0.1,0.1,0.1,0.2,0.2,0.2c0.1,0.1,0.3,0.3,0.4,0.4v0.1c0.1,0.1,0.1,0.1,0.2,0.2v0.1
			c0,0,0.1,0.1,0.1,0.1v0.1l0.1,0.1v0.1c0,0,0.1,0,0.1,0c0,0,0,0.1,0,0.1h0v0.1c0,0,0.1,0,0.1,0c0,0.1,0.1,0.2,0.1,0.2
			c0,0,0.1,0,0.1,0c0,0.1,0.1,0.2,0.1,0.2h0c0,0.1,0.1,0.2,0.1,0.2h0c0,0.1,0,0.1,0,0.2h0V38h0c0,0.1,0,0.2,0,0.2h0v0.1h0
			c0,0.1,0,0.2,0,0.3C48.7,39.9,48.5,41.7,48,42.9z M30.7,35.3L30.7,35.3c0.1-0.1,0.1-0.1,0.2-0.1c0,0,0-0.1,0-0.1H31l0.1-0.1
			c0.1-0.1,0.2-0.1,0.2-0.2v-0.1h0v-0.1h0c0-0.1,0.1-0.2,0.1-0.2h0v-0.2h0v-0.5h0v-0.2h0v-0.1h0v-0.1h0v-0.1h0v-0.1h0v-0.1
			c0,0-0.1-0.1-0.1-0.1c-0.1-0.1-0.1-0.2-0.2-0.2h-0.1c0,0,0-0.1,0-0.1c-0.1,0-0.1,0-0.2,0v0c-0.2-0.1-0.6-0.1-0.9-0.1H22v0h-0.2v0
			c-0.1,0-0.1,0-0.2,0v0c-0.1,0-0.1,0-0.2,0c0,0,0,0.1,0,0.1h-0.1c0,0.1-0.1,0.1-0.1,0.2c0,0-0.1,0-0.1,0v0.1c0,0-0.1,0.1-0.1,0.1
			v0.1h0v0.1h0v0.1h0v0.1h0v0.2h0c-0.1,0.2,0.1,0.8,0.2,1c0,0,0.1,0.1,0.1,0.1v0.1c0,0,0.1,0,0.1,0c0,0.1,0.1,0.1,0.1,0.2h0.1
			c0,0,0,0.1,0,0.1c0.5,0.3,1.9,0.2,2.8,0.2h4.5C29.3,35.4,30.3,35.4,30.7,35.3z M21,42.8c0,0.1,0,0.1,0,0.2h0c0,0.1,0,0.1,0,0.2
			c0.1,0.1,0.2,0.1,0.2,0.2c0,0.1,0.1,0.1,0.1,0.2c0.5,0.3,1.5,0.2,2.3,0.2h2.8c0.5,0,1.1,0,1.5-0.1v0h0.1c0,0,0-0.1,0-0.1h0.1
			c0,0,0.1-0.1,0.1-0.1h0.1v0c0,0,0.1,0,0.1,0v-0.1c0,0,0.1-0.1,0.1-0.1V43c0,0,0.1,0,0.1,0v-0.1h0v-0.1h0v-0.1h0v-0.2h0
			c0.1-0.2,0-0.7-0.1-0.8h0c0-0.1,0-0.1,0-0.2h0v-0.1l-0.1-0.1v-0.1h0c0-0.1-0.1-0.1-0.1-0.2h-0.1c0,0-0.1-0.1-0.1-0.1h-0.1v0
			c-0.1,0-0.1,0-0.2,0v0h-0.1v0h-0.2v0H22v0h-0.2v0h-0.1v0h-0.1v0h-0.1c0,0,0,0.1,0,0.1h-0.1c-0.1,0.1-0.3,0.3-0.4,0.4
			c-0.2,0.3-0.3,0.7-0.1,1.1L21,42.8L21,42.8z"/>
	</g>
</g>
</svg>
