<?xml version="1.0" encoding="utf-8"?>
<!-- Generator: Adobe Illustrator 23.0.3, SVG Export Plug-In . SVG Version: 6.00 Build 0)  -->
<svg version="1.1" id="_x3C_Layer_x3E_" xmlns="http://www.w3.org/2000/svg" xmlns:xlink="http://www.w3.org/1999/xlink" x="0px"
	 y="0px" viewBox="0 0 1486.8 1214.6" style="enable-background:new 0 0 1486.8 1214.6;" xml:space="preserve">
<style type="text/css">
	.st0{fill:url(#SVGID_1_);}
	.st1{fill:url(#SVGID_2_);}
	.st2{fill:url(#SVGID_3_);}
	.st3{fill:url(#SVGID_4_);}
	.st4{fill:url(#SVGID_5_);}
	.st5{fill:url(#SVGID_6_);}
	.st6{fill:#F4F4F4;}
	.st7{fill:#FFFFFF;}
	.st8{fill:url(#SVGID_7_);}
	.st9{fill:url(#SVGID_8_);}
	.st10{fill:url(#SVGID_9_);}
	.st11{fill:#90C1FC;}
	.st12{fill:#4372BD;}
	.st13{fill:#4E85DE;}
	.st14{fill:#72ACFB;}
	.st15{fill:url(#SVGID_10_);}
	.st16{fill:url(#SVGID_11_);}
	.st17{fill:url(#SVGID_12_);}
	.st18{fill:url(#SVGID_13_);}
	.st19{fill:url(#SVGID_14_);}
	.st20{fill:url(#SVGID_15_);}
	.st21{fill:#BFD4FC;}
	.st22{fill:#DCD0C8;}
	.st23{fill:#6D6865;}
	.st24{fill:#C6BBB5;}
	.st25{fill:#948C87;}
	.st26{fill:#A98E75;}
	.st27{fill:#EBB35C;}
	.st28{fill:#454971;}
	.st29{fill:#2E3048;}
	.st30{fill:#DBA585;}
	.st31{fill:#3E4148;}
	.st32{fill:#363957;}
	.st33{fill:#8C8581;}
	.st34{fill:#5D5955;}
	.st35{fill:#B9AFAA;}
	.st36{fill:#B2A8A3;}
	.st37{fill:#F4F6FF;}
	.st38{fill:#8C8480;}
	.st39{fill:#DEDFE6;}
	.st40{fill:#385988;}
	.st41{fill:#4772B0;}
	.st42{fill:#5886C7;}
	.st43{fill:#DEDEDE;}
	.st44{fill:#DF655A;}
	.st45{fill:url(#SVGID_16_);}
	.st46{fill:url(#SVGID_17_);}
	.st47{fill:url(#SVGID_18_);}
	.st48{fill:url(#SVGID_19_);}
	.st49{fill:url(#SVGID_20_);}
	.st50{fill:url(#SVGID_21_);}
	.st51{fill:url(#SVGID_22_);}
	.st52{fill:#558AD8;}
	.st53{fill:#3A3D5D;}
	.st54{fill:#42466C;}
	.st55{fill:#E6D8D1;}
	.st56{fill:#CD7250;}
	.st57{fill:#997761;}
	.st58{fill:#C8BCB6;}
	.st59{fill:#CFC3BC;}
	.st60{fill:#4C507D;}
	.st61{fill:#6D76BA;}
	.st62{fill:#F3E4DC;}
	.st63{fill:#2A2B41;}
	.st64{fill:#414469;}
</style>
<linearGradient id="SVGID_1_" gradientUnits="userSpaceOnUse" x1="0" y1="617.2045" x2="1407.1497" y2="617.2045">
	<stop  offset="0" style="stop-color:#72ACFB;stop-opacity:0.2"/>
	<stop  offset="1" style="stop-color:#72ACFB;stop-opacity:0.1"/>
</linearGradient>
<path class="st0" d="M243.3,849.9c130.7,24.7,193,120.9,269.6,185.7c90.2,76.3,199.9,34,293.6,20.5
	c168.5-24.2,225.8,153.3,411.2,129.8c177.4-22.5,246.7-244.8,136.4-372c-110.3-127.3-106.7-165.7-81.3-255.7
	c25.4-90,70-258.6-107.6-273.8c-152.7-13.1-240.9-51.2-308.1-117.5C789.8,100.5,542.4-82,426.9,195.3
	c-55.2,132.5-88.4,179.1-212.4,213.1C90.6,442.4,4,535.9,0.1,641.9C-3.5,742.2,68.7,816.9,243.3,849.9z"/>
<linearGradient id="SVGID_2_" gradientUnits="userSpaceOnUse" x1="106.2001" y1="643.7544" x2="1486.7988" y2="643.7544">
	<stop  offset="0" style="stop-color:#72ACFB;stop-opacity:0.1"/>
	<stop  offset="1" style="stop-color:#72ACFB;stop-opacity:0.3"/>
</linearGradient>
<path class="st1" d="M802.5,153.5c-105.5,77-222.9,87.1-346.8,62.5c-123.8-24.6-227.4-29-308.5,87.1
	C66.2,419.3,96.5,637.8,316.2,691.7c209.4,51.4,244.3,219.8,281.5,339.4c45,145.1,180.1,205.4,319.7,176.4
	c139.6-29,177.9-131.7,231.9-290.3c54-158.5,117.8-178.1,211.7-225.5c115-58.1,212.6-233.5,2.3-332.7
	C1088.5,229.5,1109.3-70.3,802.5,153.5z"/>
<g>
	<g>
		
			<linearGradient id="SVGID_3_" gradientUnits="userSpaceOnUse" x1="-13028.4424" y1="-2.7566" x2="-12740.5879" y2="-2.7566" gradientTransform="matrix(-0.9986 -5.380000e-02 -5.380000e-02 0.9986 -12536.8086 -323.1703)">
			<stop  offset="5.181350e-03" style="stop-color:#4A612F"/>
			<stop  offset="1" style="stop-color:#769A42"/>
		</linearGradient>
		<path class="st2" d="M447.4,382.5c18.7,40.7,29.1,79.2,15.4,96.4c-0.8,1-1.7,1.9-2.7,2.8c-10.6,9.3-31.4,9.5-66.5-4.3
			c-93.5-36.9-98-100.7-116.9-163c-18.6-61.5-83.8-51.1-85.4-50.8C343,210.8,415.7,313.5,447.4,382.5z"/>
		<g>
			
				<linearGradient id="SVGID_4_" gradientUnits="userSpaceOnUse" x1="-3805.4077" y1="3765.1223" x2="-3805.4077" y2="3562.7126" gradientTransform="matrix(0.7495 -0.662 0.662 0.7495 841.8934 -4837.5186)">
				<stop  offset="5.181350e-03" style="stop-color:#4A612F"/>
				<stop  offset="1" style="stop-color:#769A42"/>
			</linearGradient>
			<path class="st3" d="M462.8,478.9c-0.8,1-1.7,1.9-2.7,2.8c-17.6-10.6-51.2-33-67.1-58.2c-7.5-11.9-13.8-25.3-20.4-39.4
				c-12.6-26.8-25.6-54.4-48.4-75.6l2.5-2.7c23.3,21.7,36.4,49.7,49.2,76.8c6.6,14,12.8,27.3,20.2,39
				C411.7,446.1,445.6,468.6,462.8,478.9z"/>
		</g>
	</g>
	<g>
		
			<linearGradient id="SVGID_5_" gradientUnits="userSpaceOnUse" x1="-13000.8936" y1="-89.6432" x2="-12864.6348" y2="-89.6432" gradientTransform="matrix(-0.9986 -5.380000e-02 -5.380000e-02 0.9986 -12536.8086 -323.1703)">
			<stop  offset="5.181350e-03" style="stop-color:#4A612F"/>
			<stop  offset="1" style="stop-color:#769A42"/>
		</linearGradient>
		<path class="st4" d="M431.1,399.2c-1.1,2.7-1.8,4.2-1.9,4.4c-0.3-1.5-0.6-3-0.9-4.4c-12.5-63.9-29.2-70.6-79.2-126.5
			c-51.2-57.2-21.7-110.5-21.7-110.5C498.8,211.7,442.8,370.6,431.1,399.2z"/>
		<g>
			
				<linearGradient id="SVGID_6_" gradientUnits="userSpaceOnUse" x1="-2108.8752" y1="3119.2654" x2="-2108.8752" y2="2920.5168" gradientTransform="matrix(0.8707 -0.4917 0.4917 0.8707 747.0818 -3359.5854)">
				<stop  offset="5.181350e-03" style="stop-color:#4A612F"/>
				<stop  offset="1" style="stop-color:#769A42"/>
			</linearGradient>
			<path class="st5" d="M431.1,399.2c-1.1,2.7-1.8,4.2-1.9,4.4c-0.3-1.5-0.6-3-0.9-4.4c5.6-55.3-27.8-120.1-38.3-131.7
				c-10.8-12.1-17.5-28.6-20-34.9c-0.4-1-0.8-2-1-2.3l2.4-1.4c0.2,0.4,0.5,1.1,1.1,2.6c2.5,6.1,9,22.4,19.5,34
				C405.5,280.3,436.2,345.5,431.1,399.2z"/>
		</g>
	</g>
	<path class="st6" d="M1183.6,376.2h-731c-27.3,0-49.5-22.2-49.5-49.5V117.5c0-27.3,22.2-49.5,49.5-49.5h731
		c27.3,0,49.5,22.2,49.5,49.5v209.2C1233.1,354,1211,376.2,1183.6,376.2z"/>
	<rect x="446.5" y="736.5" class="st7" width="311.2" height="10.4"/>
	<linearGradient id="SVGID_7_" gradientUnits="userSpaceOnUse" x1="791.2441" y1="693.0986" x2="346.925" y2="693.0986">
		<stop  offset="0" style="stop-color:#EEBE63"/>
		<stop  offset="1" style="stop-color:#DC3B57"/>
	</linearGradient>
	<rect x="446.5" y="687.9" class="st8" width="231.1" height="10.4"/>
	<linearGradient id="SVGID_8_" gradientUnits="userSpaceOnUse" x1="791.246" y1="717.3892" x2="346.9254" y2="717.3892">
		<stop  offset="0" style="stop-color:#EEBE63"/>
		<stop  offset="1" style="stop-color:#DC3B57"/>
	</linearGradient>
	<rect x="446.5" y="712.2" class="st9" width="249.7" height="10.4"/>
	<linearGradient id="SVGID_9_" gradientUnits="userSpaceOnUse" x1="791.2386" y1="741.6816" x2="346.9274" y2="741.6816">
		<stop  offset="0" style="stop-color:#EEBE63"/>
		<stop  offset="1" style="stop-color:#DC3B57"/>
	</linearGradient>
	<rect x="446.5" y="736.5" class="st10" width="162" height="10.4"/>
	<g>
		<path class="st6" d="M741,870.6H292.8c-20.3,0-36.7-16.4-36.7-36.7V429.6c0-20.3,16.4-36.7,36.7-36.7H741
			c20.3,0,36.7,16.4,36.7,36.7v404.2C777.7,854.1,761.3,870.6,741,870.6z"/>
		<g>
			<g>
				<path class="st11" d="M449.4,537.6c10.6-29.6,1-61.4-21.5-80.6c-5.4-4.6-11.5-8.4-18.3-11.4c-1.5-0.6-3-1.2-4.6-1.8
					c-15.6-5.6-31.9-5.6-46.6-1c-21.2,6.6-39.2,22.8-47.2,45.3c-2.7,7.4-4,15-4.3,22.5c-0.9,30.9,17.9,60.3,48.7,71.3
					C393.8,595.6,435.8,575.8,449.4,537.6z M361.8,564.7c-23-8.2-37.2-30.2-36.5-53.4c0.2-5.6,1.2-11.3,3.2-16.9
					c6-16.9,19.5-29,35.4-34c11-3.4,23.2-3.5,34.9,0.7c1.2,0.4,2.3,0.9,3.4,1.4c5.1,2.2,9.7,5.1,13.7,8.5
					c16.9,14.4,24.1,38.3,16.1,60.4C421.9,560,390.4,574.9,361.8,564.7z"/>
			</g>
			<g>
				<path class="st12" d="M363.9,460.4l-5.5-17.5c-21.2,6.6-39.2,22.8-47.2,45.3c-2.7,7.4-4,15-4.3,22.5l18.4,0.5
					c0.2-5.6,1.2-11.3,3.2-16.9C334.6,477.5,348,465.3,363.9,460.4z"/>
			</g>
			<g>
				<path class="st13" d="M402.3,462.4l7.3-16.8c-1.5-0.6-3-1.2-4.6-1.8c-15.6-5.6-31.9-5.6-46.6-1l5.5,17.5
					c11-3.4,23.2-3.5,34.9,0.7C400,461.5,401.2,462,402.3,462.4z"/>
			</g>
			<g>
				<path class="st14" d="M427.9,457c-5.4-4.6-11.5-8.4-18.3-11.4l-7.3,16.8c5.1,2.2,9.7,5.1,13.7,8.5L427.9,457z"/>
			</g>
		</g>
		<g>
			<rect x="657.5" y="686.6" class="st14" width="25.5" height="87.2"/>
		</g>
		<g>
			<rect x="619.6" y="711" class="st14" width="25.5" height="62.8"/>
		</g>
		<g>
			<rect x="694.2" y="646.1" class="st14" width="25.5" height="127.6"/>
		</g>
		<g>
			<polygon class="st14" points="715.6,582.4 715.1,579.6 647.9,590.6 626.1,637 553.7,642 530.2,676.6 474.8,675.2 474.8,678 
				531.7,679.4 555.2,644.7 628,639.7 649.8,593.1 			"/>
		</g>
		<path class="st13" d="M633.5,466.1h72.4c4.6,0,8.3-3.7,8.3-8.3l0,0c0-4.6-3.7-8.3-8.3-8.3h-72.4c-4.6,0-8.3,3.7-8.3,8.3l0,0
			C625.2,462.4,628.9,466.1,633.5,466.1z"/>
		<path class="st14" d="M633.5,495h72.4c4.6,0,8.3-3.7,8.3-8.3l0,0c0-4.6-3.7-8.3-8.3-8.3h-72.4c-4.6,0-8.3,3.7-8.3,8.3l0,0
			C625.2,491.3,628.9,495,633.5,495z"/>
		<path class="st14" d="M633.5,523.9h72.4c4.6,0,8.3-3.7,8.3-8.3l0,0c0-4.6-3.7-8.3-8.3-8.3h-72.4c-4.6,0-8.3,3.7-8.3,8.3l0,0
			C625.2,520.2,628.9,523.9,633.5,523.9z"/>
		<g>
			<polygon class="st14" points="502.4,480.5 461,480.5 461,478.9 501.7,478.9 523.5,457.1 550.2,457.1 550.2,458.6 524.2,458.6 			
				"/>
		</g>
		<g>
			<polygon class="st14" points="541.6,552.8 488.3,552.8 471.1,535.5 472.2,534.4 489,551.2 541.6,551.2 			"/>
		</g>
		<rect x="527.5" y="467.6" class="st13" width="55.3" height="6.8"/>
		<rect x="510.6" y="536.7" class="st13" width="44.5" height="6.8"/>
	</g>
	<g>
		<linearGradient id="SVGID_10_" gradientUnits="userSpaceOnUse" x1="125.2056" y1="782.4876" x2="286.6271" y2="782.4876">
			<stop  offset="0" style="stop-color:#81D3E4"/>
			<stop  offset="1" style="stop-color:#6076FA"/>
		</linearGradient>
		<path class="st15" d="M139.3,569.2c13.9-6.7,27.8,37.7,27.8,37.7c23.7,31.3,56.7-10.3,53.5,36.4c-5.7,81.8,94.1,25.7,48.1,111.1
			c-46,85.4,40.6,48.3,12,117.1c-28.6,68.8,8.5,150.9-34.6,117.2c0,0-37.9-83.1-77-108.8c-39.1-25.7,23.4-56.2,11.2-91.2
			c-17.8-50.7-60.6-48.7-29.7-103.3C181.5,630.9,92,591.8,139.3,569.2z"/>
		<g>
			<path class="st7" d="M259.8,957.4c-18.7-13.1-40.5-104.6-41.8-159c-0.7-27.9-8.9-39.5-16.2-49.8c-7-9.8-13-18.3-9.5-37.7
				c6.7-37.1-10.9-53.2-11.1-53.3l2-2.3c0.8,0.7,19.1,17.2,12.1,56.2c-3.3,18.2,2.1,25.8,8.9,35.4c7.2,10.1,16.1,22.6,16.8,51.5
				c1.4,58.4,23.7,144.8,40.5,156.6L259.8,957.4z"/>
		</g>
		<g>
			<linearGradient id="SVGID_11_" gradientUnits="userSpaceOnUse" x1="243.6196" y1="872.5627" x2="389.5964" y2="872.5627">
				<stop  offset="0" style="stop-color:#81D3E4"/>
				<stop  offset="1" style="stop-color:#6076FA"/>
			</linearGradient>
			<path class="st16" d="M266.7,964.1c-2.4,0-5-0.3-7.9-0.9c-7.2-1.5-11.9-5.2-14-11.3c-5-14.4,6.6-37.8,16.1-49
				c0.2-0.2,16-19.5,14.3-46.4c-0.3-4.5-0.8-8.7-1.2-12.3c-1.2-10.6-2-18.3,2.5-23.4c4-4.5,11.8-6.5,25.9-6.5
				c24.8-0.1,34.7-10.4,42.5-18.7c3.3-3.5,6.5-6.8,10.4-8.9l0,0c12.4-6.8,25.5-7.8,31.2-2.4c2.7,2.6,5,7.6,0.5,16.9
				c-4.1,8.5-9.4,14-13.6,18.3c-5.7,5.8-9.5,9.7-7.5,17.4c0.5,1.8,1,3.6,1.5,5.5c3.8,13.1,8.2,27.9-14.2,38
				c-4.8,2.1-9.1,3.8-12.9,5.3c-15.6,6.1-25.1,9.8-35.7,32.3c-2.1,4.4-3.9,8.5-5.6,12.5C290.5,949.7,284.1,964.1,266.7,964.1z
				 M356.9,789.5c-3.4,1.9-6.3,4.9-9.6,8.3c-8.3,8.7-18.6,19.5-44.8,19.6c-13,0.1-20.3,1.8-23.6,5.5c-3.6,4.1-2.8,11.2-1.7,21
				c0.4,3.7,0.9,7.9,1.2,12.5c1.8,28.1-14.3,47.7-15,48.5c-9.4,11.1-20,33.3-15.5,46c1.7,4.9,5.7,8.1,11.7,9.3
				c21.1,4.3,26.9-8.9,36.6-30.8c1.8-4,3.6-8.2,5.7-12.5c11.2-23.6,21.6-27.7,37.4-33.9c3.8-1.5,8.1-3.2,12.8-5.3
				c20-9,16.4-21.3,12.5-34.3c-0.5-1.9-1.1-3.7-1.6-5.6c-2.4-9.4,2.3-14.2,8.3-20.3c4.3-4.4,9.2-9.4,13.1-17.5
				c2-4.2,3.7-10,0.2-13.3C379.8,782.3,367.9,783.5,356.9,789.5L356.9,789.5z"/>
		</g>
		<g>
			<linearGradient id="SVGID_12_" gradientUnits="userSpaceOnUse" x1="256.0968" y1="893.7896" x2="365.6642" y2="893.7896">
				<stop  offset="0" style="stop-color:#81D3E4"/>
				<stop  offset="1" style="stop-color:#6076FA"/>
			</linearGradient>
			<path class="st17" d="M259.2,982l-3.1-0.2c0.2-2.9,4-71.1,31.4-91.1c30.1-21.9,39.5-45.5,44.1-61.3c5.3-18.6,32.4-23.6,33.5-23.8
				l0.5,3c-0.3,0-26.3,4.8-31.1,21.6c-4.6,16.2-14.4,40.4-45.2,62.9C263.1,912.3,259.2,981.3,259.2,982z"/>
		</g>
		<linearGradient id="SVGID_13_" gradientUnits="userSpaceOnUse" x1="216.5332" y1="805.6192" x2="344.1315" y2="805.6192">
			<stop  offset="0" style="stop-color:#81D3E4"/>
			<stop  offset="1" style="stop-color:#6076FA"/>
		</linearGradient>
		<path class="st18" d="M321.8,638c-19.5-6.7-15.4,30.9-23.7,58.6c-8.2,27.8-91.5,12.1-56.6,81.7c35,69.5-44.2,23.3-20.6,84
			c23.7,60.7,2.1,125.6,27.8,109.1c25.7-16.5,14.4-92.9,41.2-102c26.7-9.1,31.1-19.7,4.6-44.4c-26.5-24.7,69.4-49.2,45.7-99
			C316.7,676.1,344.3,645.8,321.8,638z"/>
		<g>
			<path class="st7" d="M260.7,968.5c-2.4-10.4-23.4-101.8-3.8-112.9c17.2-9.7,16.8-47.6,14.1-83.4c-2.4-31.7,38.3-46.5,40-47.1
				l1,2.9c-0.4,0.1-40.2,14.6-38,43.9c2.8,36.7,3.1,75.7-15.7,86.3c-14.8,8.4-1.2,81.9,5.3,109.5L260.7,968.5z"/>
		</g>
		<linearGradient id="SVGID_14_" gradientUnits="userSpaceOnUse" x1="187.253" y1="988.6455" x2="304.9962" y2="988.6455">
			<stop  offset="0" style="stop-color:#E59148"/>
			<stop  offset="1" style="stop-color:#F1CC52"/>
		</linearGradient>
		<polygon class="st19" points="305,935.9 277.2,1041.4 215.1,1041.4 187.3,935.9 		"/>
		<linearGradient id="SVGID_15_" gradientUnits="userSpaceOnUse" x1="187.253" y1="988.6455" x2="304.9962" y2="988.6455">
			<stop  offset="0" style="stop-color:#B37239"/>
			<stop  offset="1" style="stop-color:#F1CC52"/>
		</linearGradient>
		<path class="st20" d="M305,935.9c0,0-61.2,11.5-61.2,105.5h-28.7l-27.8-105.5H305z"/>
	</g>
	<g>
		<polygon class="st21" points="473.1,26.1 473.1,35 385.9,35 385.9,122.2 377,122.2 377,26.1 		"/>
	</g>
	<rect x="1191.4" class="st21" width="71" height="5"/>
	<rect x="1191.4" y="9.4" class="st21" width="71" height="20.9"/>
	<rect x="1142.8" y="17.3" class="st21" width="41.9" height="3.1"/>
	<rect x="1142.8" y="21.8" class="st21" width="41.9" height="8.5"/>
	<rect x="1260.9" class="st21" width="3.1" height="58.6"/>
	<g>
		<g>
			<rect x="391.3" y="798.9" class="st22" width="87.6" height="5.2"/>
		</g>
		<g>
			
				<rect x="403" y="817.6" transform="matrix(-1 -1.224647e-16 1.224647e-16 -1 813.7296 1871.6855)" class="st23" width="7.7" height="236.5"/>
		</g>
		<g>
			<rect x="465.2" y="797.4" class="st24" width="60.9" height="7.4"/>
		</g>
		<g>
			<rect x="484.1" y="734" class="st25" width="23.1" height="70"/>
		</g>
		<g>
			<rect x="359.9" y="804.2" class="st26" width="337.4" height="13.4"/>
		</g>
		<g>
			<path class="st27" d="M295.1,722.8c0,0-3.7,51.7,6.4,57.9c6.3,3.9,31.6,17,30.8,19.4c-0.8,2.5-14.3,21.8-14.3,21.8
				s-48.5-31.9-50.1-42c-1.5-9.8,2.4-75.8,9.1-78.8c5-2.3,7.6-0.4,13.9,4.3C299.9,712,295.1,722.8,295.1,722.8z"/>
		</g>
		<g>
			<g>
				<g>
					<path class="st28" d="M354.8,1021.8c0,0-1.5,10.5-1.7,12c-0.2,1.6-16.8-0.9-16.8-0.9l-1.3-12.5
						C335,1020.4,352.7,1020.3,354.8,1021.8z"/>
				</g>
			</g>
		</g>
		<g>
			<g>
				<g>
					<path class="st29" d="M353.3,1032.5c0,0,5.3,6.3,10.3,9.1c5.1,2.8,13.1,3.8,16.1,6.7c2.2,2.1,7.9,10.9-13.2,10.7
						c-21.1-0.2-31.3,1.3-33.6-2.1c-2.3-3.4,3.3-25,3.3-25S341.2,1033.6,353.3,1032.5z"/>
				</g>
			</g>
		</g>
		<g>
			<g>
				<g>
					<path class="st28" d="M461.1,1021.9c0,0-1.5,10.5-1.7,12c-0.2,1.6-16.8-0.9-16.8-0.9l-1.3-12.5
						C441.3,1020.5,459,1020.4,461.1,1021.9z"/>
				</g>
			</g>
		</g>
		<g>
			<g>
				<g>
					<path class="st29" d="M459.6,1032.6c0,0,5.3,6.3,10.3,9.1c5.1,2.8,23.8,5,26.8,7.9c2.2,2.1,5.8,10.3-23.9,9.6
						c-21.1-0.5-31.3,1.3-33.6-2.1c-2.3-3.4,3.3-25,3.3-25S447.2,1033.8,459.6,1032.6z"/>
				</g>
			</g>
		</g>
		<g>
			<g>
				<g>
					<path class="st29" d="M301.3,840.9c0,0,60.3,10.2,73.9,12.3c13.6,2.1,87.5,20.5,96.7,26.1c7.4,4.5-3.9,111.5-6.5,152.4h-29.1
						l-2.1-122.5c-34.9,0.9-59.8-8.2-85.3-4.3c-25.4,3.9-46.6,9.3-62.8-12.3C286.2,892.6,285.6,845.7,301.3,840.9z"/>
				</g>
			</g>
		</g>
		<g>
			<g>
				<g>
					<path class="st29" d="M360.7,1031.9l-28.4-1.8l-2.8-120.9c-15,0.4-20.2-0.6-32.3-2.1L274.4,854c20.1,4,84.3,20.2,92.9,25.4
						C374.7,883.9,363.4,991,360.7,1031.9z"/>
				</g>
			</g>
		</g>
		<g>
			<g>
				<g>
					<path class="st30" d="M329.1,614.8c0,0,22.1-6.1,30.5,11.1c8.4,17.2,4.6,49.7-6.5,52.8c-11.1,3.1-27.2-0.5-31.8-11.1
						c-4.6-10.7-8.3-25.9-7.2-35.7C315.2,622,323.2,617.2,329.1,614.8z"/>
				</g>
			</g>
		</g>
		<g>
			<g>
				<g>
					<path class="st30" d="M347.3,675.2c0,0-0.2,13.1,1.2,15.8c1.4,2.8-30.8,2.1-30.8,2.1s5.1-15.7,2.2-29
						C317,650.9,347.3,675.2,347.3,675.2z"/>
				</g>
			</g>
		</g>
		<g>
			<g>
				<g>
					<path class="st31" d="M318.2,659.2c0,0,1.7,3.5,10.1,2.9c8.3-0.6,19.3-10.6,22.9-11.5c3.5-0.9,3.8-2.9,3.8-2.9l1.9,3.3l3.6,0.6
						c0,0-2.5-10.1,2.9-13.6c5.4-3.6-2.4-32.2-29.6-25.3c0,0-20.8,3.8-21,15.4C312.3,639.7,314.1,653,318.2,659.2z"/>
				</g>
			</g>
		</g>
		<g>
			<g>
				<g>
					<path class="st22" d="M350.2,690.7c0,0-0.1-5.3-2.5-5.8c-2.4-0.5-25.3-3.7-28.3-2.5l-1.3,7
						C318.1,689.4,323.8,692.9,350.2,690.7z"/>
				</g>
			</g>
		</g>
		<g>
			<g>
				<g>
					<path class="st30" d="M356.8,645.3c-0.6-4.4-5.6-9.4-8.4-2.6c-2.8,6.8,1.9,16.7,5.1,16.1C356.7,658.3,357.7,651.2,356.8,645.3z
						"/>
				</g>
			</g>
		</g>
		<g>
			<g>
				<g>
					<path class="st32" d="M446.2,753.6C446.2,753.6,446.2,753.6,446.2,753.6C446.3,753.6,446.3,753.6,446.2,753.6z"/>
				</g>
			</g>
		</g>
		<g>
			<g>
				<g>
					<path class="st31" d="M322.6,618c0,0-27-1.3-4.7,40.8L322.6,618z"/>
				</g>
			</g>
		</g>
		<g>
			<g>
				<polygon class="st33" points="262.5,1046.2 264.5,1051.9 349.3,1025.6 345.2,1014.2 				"/>
			</g>
		</g>
		<g>
			<g>
				<rect x="342.5" y="929.5" class="st33" width="9.6" height="92.1"/>
			</g>
		</g>
		<g>
			<g>
				<rect x="319" y="924.6" class="st34" width="56.8" height="5.4"/>
			</g>
		</g>
		<g>
			<g>
				<polygon class="st33" points="432.9,1046.2 430.9,1051.9 346.2,1025.6 349.9,1013.5 				"/>
			</g>
		</g>
		<g>
			<g>
				<polygon class="st33" points="373.2,1051.3 373.2,1057.8 346.2,1025.6 349.9,1013.5 				"/>
			</g>
		</g>
		<g>
			<g>
				<path class="st35" d="M440.9,1054.1c0,4.4-3.5,7.9-7.9,7.9c-4.4,0-7.9-3.5-7.9-7.9c0-4.4,3.5-7.9,7.9-7.9
					C437.3,1046.2,440.9,1049.7,440.9,1054.1z"/>
			</g>
		</g>
		<g>
			<g>
				<path class="st35" d="M373.9,1054.1c0,4.4-3.5,7.9-7.9,7.9c-4.4,0-7.9-3.5-7.9-7.9c0-4.4,3.5-7.9,7.9-7.9
					C370.4,1046.2,373.9,1049.7,373.9,1054.1z"/>
			</g>
		</g>
		<g>
			<g>
				<path class="st35" d="M270.5,1054.1c0,4.4-3.5,7.9-7.9,7.9c-4.4,0-7.9-3.5-7.9-7.9c0-4.4,3.5-7.9,7.9-7.9
					C266.9,1046.2,270.5,1049.7,270.5,1054.1z"/>
			</g>
		</g>
		<g>
			<path class="st22" d="M404.7,924.6h-114c-5.7,0-10.3-4.6-10.3-10.3l0,0c0-5.7,4.6-10.3,10.3-10.3h114c5.7,0,10.3,4.6,10.3,10.3
				l0,0C415,920,410.4,924.6,404.7,924.6z"/>
		</g>
		<g>
			<rect x="646.4" y="817.6" class="st23" width="7.7" height="236.5"/>
		</g>
		<g>
			<path class="st36" d="M583.5,767.8H407.8c-6.5,0-11.7-5.2-11.7-11.7V639c0-6.5,5.2-11.7,11.7-11.7h175.7
				c6.5,0,11.7,5.2,11.7,11.7v117C595.2,762.5,589.9,767.8,583.5,767.8z"/>
		</g>
		<g>
			<rect x="403.9" y="634.9" class="st37" width="183.5" height="110.9"/>
		</g>
		<g>
			<path class="st38" d="M579.2,756.2c0,3.2-3.3,5.7-7.4,5.7c-4.1,0-7.4-2.6-7.4-5.7c0-3.2,3.3-5.7,7.4-5.7
				C575.9,750.5,579.2,753.1,579.2,756.2z"/>
		</g>
		<g>
			<path class="st25" d="M536.8,804.3v-2.5c0,0-3.5-15.5-28.4-15.5c-24.9,0-24.4,18-24.4,18H536.8z"/>
		</g>
		<g>
			<g>
				<path class="st30" d="M483.8,788.6c0,0,5.4-0.4,7.4-1.6c2-1.2,13.8-9.2,16.6-7.9c2.8,1.3,21.3,6.9,20.6,9.6
					c-0.6,2.7-2.4,2.4-3.7,2c-1.3-0.5-14.7-3.3-15.9-2.8c0,0,13.2,4.8,13.2,8.3c0.1,3.5-2.8,4.4-4,5.7c-1.3,1.3-2.8,4.6-6.2,4.9
					c-3.4,0.3-20-5.5-23.4-5.8c-3.4-0.3-9.7,0.2-10.2-0.3C477.9,800.1,483.8,788.6,483.8,788.6z"/>
			</g>
		</g>
		<g>
			<g>
				<g>
					<path class="st27" d="M385.5,698.1c-17.2-3-35.3-7.4-35.3-7.4l-32.1-1.3c0,0-29.4,6.5-41,11.7c-1.1,0.5-1.1,26.3-4.1,33
						l9.6,20.3c0,0,5.5,40.2,6.7,58c0.5,8.2-1.5,79.2-1.5,79.2s2.9,1.4,24.8,3.8c21.9,2.4,76.6-0.9,76.9-3.5
						c0.3-2.6-10.6-96.2-11.1-101.1c-0.7-7.4,2.2-41.8,2.2-41.8c4.1,5.5,14.6,30.5,25.6,42.5c6.4,7,38.4,11.3,44.4,11.5
						c13.1,0.4,37,3,37.7,1.8c0.6-0.8,2.1-21.2,0.6-21.7c-1.3-0.4-45.7-3-57-9c-4.2-2.2-16.6-29.3-16.6-29.3S395,702.4,385.5,698.1z
						"/>
				</g>
			</g>
		</g>
		<g>
			<path class="st22" d="M319.3,889.6h-47.7c-12.4,0-22.5-10.1-22.5-22.5v-83.5c0-12.4,10.1-22.5,22.5-22.5h47.7
				c12.4,0,22.5,10.1,22.5,22.5v83.5C341.8,879.5,331.7,889.6,319.3,889.6z"/>
		</g>
		<g>
			<path class="st22" d="M325.4,919.5c-13.7,0-24.8-4.6-33-13.7c-18.5-20.5-15.2-56.5-15.1-58c0.3-2.8,2.8-4.9,5.6-4.6
				c2.8,0.3,4.9,2.8,4.6,5.6c0,0.4-3,33,12.5,50.1c6.3,6.9,14.5,10.2,25.3,10.2c2.8,0,5.2,2.3,5.2,5.2
				C330.5,917.1,328.2,919.5,325.4,919.5z"/>
		</g>
		<g>
			<g>
				<g>
					<path class="st39" d="M469,649.6h-50.4c-0.9,0-1.7-0.8-1.7-1.7v-2.5c0-0.9,0.8-1.7,1.7-1.7H469c0.9,0,1.7,0.8,1.7,1.7v2.5
						C470.6,648.8,469.9,649.6,469,649.6z"/>
				</g>
			</g>
		</g>
		<g>
			<g>
				<g>
					<path class="st39" d="M469,662.2h-50.4c-0.9,0-1.7-0.8-1.7-1.7V658c0-0.9,0.8-1.7,1.7-1.7H469c0.9,0,1.7,0.8,1.7,1.7v2.5
						C470.6,661.4,469.9,662.2,469,662.2z"/>
				</g>
			</g>
		</g>
		<g>
			<g>
				<g>
					<path class="st39" d="M465,736.9h-42.5c-3.1,0-5.6-2.5-5.6-5.6v-54.9c0-3.1,2.5-5.6,5.6-5.6H465c3.1,0,5.6,2.5,5.6,5.6v54.9
						C470.6,734.4,468.1,736.9,465,736.9z"/>
				</g>
			</g>
		</g>
		<g>
			<g>
				<g>
					<path class="st39" d="M568.3,736.9h-77.9c-4.9,0-8.9-4-8.9-8.9v-75.3c0-4.9,4-8.9,8.9-8.9h77.9c4.9,0,8.9,4,8.9,8.9V728
						C577.2,732.9,573.2,736.9,568.3,736.9z"/>
				</g>
			</g>
		</g>
	</g>
	<g>
		<g>
			<g>
				<path class="st14" d="M650.8,193.2c-16.1-45.1-59.3-72.9-104.7-71.5c-11,0.3-22.1,2.4-33.1,6.3c-33.1,11.8-56.9,38.2-66.6,69.4
					c-6.8,21.6-6.8,45.5,1.4,68.4c0.8,2.3,1.7,4.5,2.7,6.7c4.3,9.9,10,18.9,16.7,26.8c28.2,33.2,75,47.2,118.4,31.7
					C641.7,311,670.9,249.3,650.8,193.2z M576.5,305.6c-32.6,11.6-67.7,1.1-88.8-23.7c-5-5.9-9.3-12.7-12.5-20.1
					c-0.7-1.6-1.4-3.3-2-5c-6.2-17.2-6.1-35.1-1.1-51.3c7.3-23.4,25.1-43.1,49.9-52c8.2-2.9,16.5-4.5,24.8-4.7
					c34.1-1,66.4,19.8,78.5,53.6C640.4,244.3,618.6,290.6,576.5,305.6z"/>
			</g>
		</g>
		<g>
			<g>
				<path class="st40" d="M472.1,205.4l-25.8-8c9.8-31.2,33.5-57.5,66.6-69.4c10.9-3.9,22.1-5.9,33.1-6.3l0.8,27
					c-8.3,0.3-16.6,1.8-24.8,4.7C497.3,162.3,479.5,182.1,472.1,205.4z"/>
			</g>
		</g>
		<g>
			<g>
				<path class="st41" d="M475.2,261.8l-24.7,10.8c-1-2.2-1.8-4.4-2.7-6.7c-8.2-22.9-8.2-46.8-1.4-68.4l25.8,8
					c-5.1,16.2-5.1,34.1,1.1,51.3C473.8,258.4,474.5,260.1,475.2,261.8z"/>
			</g>
		</g>
		<g>
			<g>
				<path class="st42" d="M467.2,299.4c-6.7-7.9-12.4-16.9-16.7-26.8l24.7-10.8c3.2,7.5,7.5,14.2,12.5,20.1L467.2,299.4z"/>
			</g>
		</g>
	</g>
	<g>
		<g>
			<g>
				<rect x="693.4" y="199.8" class="st43" width="19.1" height="136"/>
			</g>
			<g>
				<rect x="740.8" y="227.4" class="st43" width="19.1" height="108.3"/>
			</g>
			<g>
				<rect x="788.2" y="207.1" class="st43" width="19.1" height="128.7"/>
			</g>
			<g>
				<rect x="835.6" y="247.2" class="st43" width="19.1" height="88.5"/>
			</g>
			<g>
				<rect x="883" y="211.3" class="st43" width="19.1" height="124.5"/>
			</g>
			<g>
				<rect x="930.4" y="192.5" class="st43" width="19.1" height="143.3"/>
			</g>
			<g>
				<rect x="977.8" y="184.7" class="st43" width="19.1" height="151.1"/>
			</g>
			<g>
				<rect x="693.4" y="250.5" class="st44" width="19.1" height="85.3"/>
			</g>
			<g>
				<rect x="740.8" y="267.8" class="st44" width="19.1" height="68"/>
			</g>
			<g>
				<rect x="788.2" y="255" class="st44" width="19.1" height="80.7"/>
			</g>
			<g>
				<rect x="835.6" y="280.2" class="st44" width="19.1" height="55.5"/>
			</g>
			<g>
				<rect x="883" y="257.7" class="st44" width="19.1" height="78.1"/>
			</g>
			<g>
				<rect x="930.4" y="245.9" class="st44" width="19.1" height="89.9"/>
			</g>
			<g>
				<rect x="977.8" y="241" class="st44" width="19.1" height="94.8"/>
			</g>
		</g>
		<g>
			<rect x="1030.1" y="199.8" class="st43" width="19.1" height="136"/>
		</g>
		<g>
			<rect x="1077.5" y="227.4" class="st43" width="19.1" height="108.3"/>
		</g>
		<g>
			<rect x="1124.9" y="207.1" class="st43" width="19.1" height="128.7"/>
		</g>
		<g>
			<rect x="1172.3" y="247.2" class="st43" width="19.1" height="88.5"/>
		</g>
		<g>
			<rect x="1030.1" y="250.5" class="st44" width="19.1" height="85.3"/>
		</g>
		<g>
			<rect x="1077.5" y="267.8" class="st44" width="19.1" height="68"/>
		</g>
		<g>
			<rect x="1124.9" y="255" class="st44" width="19.1" height="80.7"/>
		</g>
		<g>
			<rect x="1172.3" y="280.2" class="st44" width="19.1" height="55.5"/>
		</g>
	</g>
	<path class="st14" d="M690.1,132.6h494.1c4,0,7.3-3.3,7.3-7.3v-4.9c0-4-3.3-7.3-7.3-7.3H690.1c-4,0-7.3,3.3-7.3,7.3v4.9
		C682.8,129.4,686.1,132.6,690.1,132.6z"/>
	<path class="st21" d="M690.1,166.5h494.1c4,0,7.3-3.3,7.3-7.3v-4.9c0-4-3.3-7.3-7.3-7.3H690.1c-4,0-7.3,3.2-7.3,7.3v4.9
		C682.8,163.3,686.1,166.5,690.1,166.5z"/>
	<g>
		<path class="st6" d="M996.7,786.3H811.4c-12.8,0-23.1-10.4-23.1-23.1V416.4c0-12.8,10.4-23.1,23.1-23.1h185.3
			c12.8,0,23.1,10.4,23.1,23.1v346.8C1019.8,775.9,1009.5,786.3,996.7,786.3z"/>
	</g>
	<g>
		<g>
			<rect x="804.4" y="627.7" class="st14" width="1" height="129.9"/>
		</g>
		<g>
			<rect x="853.6" y="627.7" class="st14" width="1" height="129.9"/>
		</g>
		<g>
			<rect x="902.9" y="627.7" class="st14" width="1" height="129.9"/>
		</g>
		<g>
			<rect x="952.1" y="627.7" class="st14" width="1" height="129.9"/>
		</g>
		<g>
			<rect x="1001.4" y="627.7" class="st14" width="1" height="129.9"/>
		</g>
	</g>
	<linearGradient id="SVGID_16_" gradientUnits="userSpaceOnUse" x1="804.8731" y1="697.2983" x2="1001.8956" y2="697.2983">
		<stop  offset="0" style="stop-color:#81D3E4"/>
		<stop  offset="1" style="stop-color:#6076FA"/>
	</linearGradient>
	<path class="st45" d="M804.9,704.9c0,0,20.1,16.9,39.5-3.1c19.4-20,41.8-26.7,61.6-9.8c19.8,16.9,27.5-6.3,47.3-25.2
		c19.8-19,19.5-29.7,48.7-29.7v120.6h-197V704.9z"/>
	<rect x="854.1" y="616.9" class="st14" width="12.2" height="4.7"/>
	<rect x="804.4" y="616.9" class="st14" width="16.7" height="4.7"/>
	<rect x="903.4" y="616.9" class="st14" width="15.1" height="4.7"/>
	<rect x="952.1" y="616.9" class="st14" width="15.1" height="4.7"/>
	<rect x="986.8" y="616.9" class="st14" width="15.1" height="4.7"/>
	<linearGradient id="SVGID_17_" gradientUnits="userSpaceOnUse" x1="927.421" y1="535.6064" x2="993.2843" y2="535.6064">
		<stop  offset="0" style="stop-color:#81D3E4"/>
		<stop  offset="1" style="stop-color:#6076FA"/>
	</linearGradient>
	<rect x="927.4" y="531.4" class="st46" width="65.9" height="8.3"/>
	<linearGradient id="SVGID_18_" gradientUnits="userSpaceOnUse" x1="927.421" y1="570.5278" x2="987.881" y2="570.5278">
		<stop  offset="0" style="stop-color:#81D3E4"/>
		<stop  offset="1" style="stop-color:#6076FA"/>
	</linearGradient>
	<rect x="927.4" y="566.4" class="st47" width="60.5" height="8.3"/>
	<linearGradient id="SVGID_19_" gradientUnits="userSpaceOnUse" x1="927.421" y1="553.0698" x2="979.7335" y2="553.0698">
		<stop  offset="0" style="stop-color:#81D3E4"/>
		<stop  offset="1" style="stop-color:#6076FA"/>
	</linearGradient>
	<rect x="927.4" y="548.9" class="st48" width="52.3" height="8.3"/>
	<path class="st14" d="M868.4,519.6c0,6.4-5.2,11.5-11.5,11.5c-6.4,0-11.5-5.2-11.5-11.5c0-6.4,5.2-11.5,11.5-11.5
		C863.2,508,868.4,513.2,868.4,519.6z"/>
	<path class="st14" d="M877.6,557.1V579c-6.4,2.9-13.4,4.5-20.9,4.5c-7.4,0-14.5-1.6-20.9-4.5v-21.9c0-11.5,9.3-20.9,20.9-20.9
		C868.3,536.2,877.6,545.6,877.6,557.1z"/>
	<g>
		<linearGradient id="SVGID_20_" gradientUnits="userSpaceOnUse" x1="804.8731" y1="532.9878" x2="908.6319" y2="532.9878">
			<stop  offset="0" style="stop-color:#D3D8DE"/>
			<stop  offset="1" style="stop-color:#FFFFFF"/>
		</linearGradient>
		<path class="st49" d="M856.8,584.9c-7.5,0-14.7-1.6-21.4-4.6c-18.5-8.4-30.4-27-30.4-47.3c0-28.6,23.3-51.9,51.9-51.9
			c28.6,0,51.9,23.3,51.9,51.9c0,20.3-11.9,38.9-30.4,47.3C871.4,583.3,864.2,584.9,856.8,584.9z M856.8,483.8
			c-27.1,0-49.1,22-49.1,49.1c0,19.2,11.3,36.8,28.8,44.8c6.4,2.9,13.2,4.4,20.3,4.4c7.1,0,13.9-1.5,20.3-4.4
			c17.5-8,28.8-25.5,28.8-44.8C905.9,505.9,883.8,483.8,856.8,483.8z"/>
	</g>
	<g>
		<path class="st14" d="M959.7,511.1c-17.3,0-31.3-14.1-31.3-31.3c0-17.3,14.1-31.3,31.3-31.3c17.3,0,31.3,14.1,31.3,31.3
			C991,497,977,511.1,959.7,511.1z M959.7,454.7c-13.8,0-25.1,11.2-25.1,25.1c0,13.8,11.2,25.1,25.1,25.1
			c13.8,0,25.1-11.2,25.1-25.1C984.7,465.9,973.5,454.7,959.7,454.7z"/>
	</g>
	<rect x="854.4" y="417.3" class="st14" width="47.2" height="7.5"/>
	<rect x="861.4" y="436.7" class="st14" width="40.3" height="7.5"/>
	<rect x="836.9" y="456.1" class="st14" width="64.7" height="7.5"/>
	<g>
		<path class="st6" d="M1185.6,504.3h-145.3c-3.2,0-5.8-2.6-5.8-5.8V398.3c0-3.2,2.6-5.8,5.8-5.8h145.3c3.2,0,5.8,2.6,5.8,5.8v100.2
			C1191.4,501.7,1188.8,504.3,1185.6,504.3z"/>
	</g>
	<linearGradient id="SVGID_21_" gradientUnits="userSpaceOnUse" x1="1047.1691" y1="425.9392" x2="1101.9357" y2="425.9392">
		<stop  offset="0" style="stop-color:#72ACFB"/>
		<stop  offset="1" style="stop-color:#5286D4"/>
	</linearGradient>
	<path class="st50" d="M1098.7,429.9h-48.3c-1.8,0-3.3-1.5-3.3-3.3v-1.5c0-1.8,1.5-3.3,3.3-3.3h48.3c1.8,0,3.3,1.5,3.3,3.3v1.5
		C1101.9,428.5,1100.5,429.9,1098.7,429.9z"/>
	<linearGradient id="SVGID_22_" gradientUnits="userSpaceOnUse" x1="1047.1691" y1="407.89" x2="1090.0851" y2="407.89">
		<stop  offset="0" style="stop-color:#72ACFB"/>
		<stop  offset="1" style="stop-color:#5286D4"/>
	</linearGradient>
	<path class="st51" d="M1087.2,411.9h-37.1c-1.6,0-2.9-1.3-2.9-2.9v-2.2c0-1.6,1.3-2.9,2.9-2.9h37.1c1.6,0,2.9,1.3,2.9,2.9v2.2
		C1090.1,410.6,1088.8,411.9,1087.2,411.9z"/>
	<polygon class="st14" points="1047.2,488.9 1078.9,457.1 1088.4,466.6 1123.2,431.8 1138.7,447.2 1179.1,406.8 1179.1,488.9 	"/>
	<polygon class="st52" points="1178.8,488.9 1178.8,425.9 1137,467.7 1122.1,452.7 1097.2,477.6 1078.3,470.1 1047.2,488.9 	"/>
	<g>
		<g>
			<path class="st53" d="M1084,1036.7c0,0-11.7,16.4-10.1,19c1.6,2.6,13.9,3,21.4,0c7.5-3,7.7-22.2,11.1-30.5
				c1.4-3.5-1.6-13.7-5.9-14.4c-4.3-0.7-8.9,1.4-8.9,1.4S1096,1023.9,1084,1036.7z"/>
		</g>
		<g>
			<g>
				<path class="st30" d="M1091.5,1012.1c0,0-2.5,7-3.4,13.7c-0.7,5.5-8.3,17.3-8,18.8c0.4,1.5,10,2.8,13.9-1
					c3.9-3.8,6.4-15,7.3-21.7c0.8-6.2,1.8-9.3,1.8-9.3S1095.3,1008,1091.5,1012.1z"/>
			</g>
		</g>
		<g>
			<path class="st53" d="M1185.8,1037c0,0-11.3,16.2-9.7,18.8c1.6,2.6,13.9,3,21.4,0c7.5-3,7.7-22.2,11.1-30.5
				c1.4-3.5-1.6-13.7-5.9-14.4c-4.3-0.7-9.3,1.6-9.3,1.6S1197.8,1024.2,1185.8,1037z"/>
		</g>
		<g>
			<g>
				<path class="st30" d="M1193.5,1012.4c0,0-0.9,7.6-2.3,13c-1.4,5.4-9.1,17.7-8.7,19.2c0.4,1.5,10,2.8,13.9-1
					c3.9-3.8,7-14.9,7.3-21.7c0.4-6.7-0.9-11.1-0.9-11.1S1197.2,1008.3,1193.5,1012.4z"/>
			</g>
		</g>
		<g>
			<g>
				<path class="st30" d="M1137.1,744.9c0,0-10,48.7-12.3,61c-2.3,12.3-8.8,71.7-9.5,81.8c-0.7,10.1-10.5,48.2-10,51.8
					c0.5,3.6-14.5,76.1-14.5,76.1s5.1,4.3,10.5,0.4c2.8-2,32.8-67.9,32.8-85.9c0-24.9,17.7-57.5,20-63.1c21.2-51.8,17-67.7,19.8-71
					c2.8-3.4,3,2.1,4.6,9.5c1.6,7.5,5.1,71.9,7.1,80.1c2.1,8.2,0.5,35.8,1.6,49.8c1.2,14,6.2,77.1,6.2,77.1s3.9,6.4,9.4,0.2
					c1.2-1.3,9.5-70.3,9.7-86.9c0.2-16.6,0.5-39.5,0.9-46.7c4.3-68.8,14.8-78.6-1.8-127.3C1180.8,660.6,1137.1,744.9,1137.1,744.9z"
					/>
			</g>
		</g>
		<g>
			<path class="st54" d="M1204.5,731.3c0,0,28.6,41.8,16.3,130.6c0,0-67.8,9.6-104.2-11.1c0,0,15-91.6,20.5-105.9
				C1142.6,730.6,1204.5,731.3,1204.5,731.3z"/>
		</g>
		<g>
			<polygon class="st53" points="1106.7,1023.8 1106.7,1041 1104.6,1041 1104.6,1027.7 			"/>
		</g>
		<g>
			<polygon class="st53" points="1208.9,1023.8 1208.9,1041 1206.8,1041 1206.8,1027.7 			"/>
		</g>
		<path class="st30" d="M1170.6,546.1c0,0-19.1,19.3-12.6,44.1c6.5,24.8,17,25,28.6,14.3c11.6-10.7,18.4-21.9,19.9-34.4
			C1207.9,557.6,1188.1,528.9,1170.6,546.1z"/>
		<path class="st30" d="M1166.9,628.9c0,0,2.8-6.5,4.8-13.8c0.3-1.3,0.7-2.6,1-3.9c1-4.6,1.4-9.1,0.3-12.2c-3.1-9,19.2-2.8,19.2-2.8
			s-4.3,23.9,0,31.9C1196.4,636.1,1166.9,628.9,1166.9,628.9z"/>
		<path class="st55" d="M1223.1,640.3c-3.5-7-6.1-9.2-12.9-11.4c-3.8-1.2-20.7-5.6-20.7-5.6l-20.3-0.7c0,0-14,2.3-24.8,6.1
			c-10.8,3.8-25,24.3-25,24.3s19.6,45.9,23.3,59.1c3.7,13.2,1.2,33.6,1.2,33.6c23.5,12.8,61.1-1.2,61.1-1.2
			c-2.9-10.3-3-22.3-1.5-30.9c0.2-1,0.4-2,0.6-2.9c0.2-0.8,0.5-2,0.8-3.3c0-0.1,0-0.1,0-0.2c14.9,1.5,28.9,2.1,29.3-0.8
			C1236.1,692.8,1228,649.9,1223.1,640.3z M1212.8,692.7c-0.6-0.1-1.9-0.1-3.2-0.2c1.7-4.6,3.5-8.7,3.5-8.7
			C1214.1,686.7,1218.2,693.5,1212.8,692.7z"/>
		<path class="st56" d="M1176.9,559.9c0,0,9.2,16.7,14.8,22.6c5.7,6,5,10.7,5,10.7s22.2-27.4,6.4-43.9c-15.8-16.5-36.2-9.9-42.2,4.6
			c-6,14.4-3.8,32.1-3.8,32.1S1157.3,569.1,1176.9,559.9z"/>
		<path class="st56" d="M1182.9,542.5c0,0-2.2-12.2,16.9-17c19.1-4.8,27.7,17.2,25.4,30.6c-2.4,13.4-18.7,47.5-9.8,52
			c8.9,4.4,12.3-5.1,12.3-5.1s-2.8,16.8-15.1,12.9c-12.3-3.9-10.7-31.1-8.8-42C1205.6,563,1182.9,542.5,1182.9,542.5z"/>
		<path class="st57" d="M1189.1,602.1c-0.1,0.2-4.9,11.3-17.4,13c0.3-1.3,0.7-2.6,1-3.9C1172.7,611.2,1179.5,612.6,1189.1,602.1z"/>
		<path class="st58" d="M1212.8,683.9c0,0-0.9,1.9-3.4,9.5c-2.5-21.3-1.2-32.4-1.2-32.4C1208.5,672.4,1212.8,683.9,1212.8,683.9z"/>
		<path class="st55" d="M1185.9,540c0,0,13.6,2.6,20.3,13.7c0,0-1.4-10-8.1-12.9C1191.3,537.8,1185.9,540,1185.9,540z"/>
		<path class="st58" d="M1205.1,707.3c-0.3,1.3-0.6,2.5-0.8,3.3c-0.2,0.9-0.4,1.9-0.6,2.9c-8.4-4.6-14.4-8.1-14.4-8.1
			C1191.5,705.9,1205.1,707.3,1205.1,707.3z"/>
		<path class="st30" d="M1190.8,623.6l-23.9,19.5l2.5-20.5C1169.3,622.6,1183.3,619.6,1190.8,623.6z"/>
		<polygon class="st59" points="1173.8,639.8 1166.9,643.1 1190.3,619.9 		"/>
		<path class="st60" d="M1206.5,705.7c-3.3,13.6,8.9,44.3,8.9,44.3l-24.1,7.5c-3.5,1.1-7.1-1-7.9-4.6c-3.2-15-10.8-51.9-11.7-72.4
			c-1.2-26.2,17.9-57.1,17.9-57.1c33.9,5.8,24.6,57.1,24.6,57.1s-1.2,3.2-2.9,8.3c0,0,0,0,0,0c-0.4,1.3-0.9,2.6-1.3,4.1
			C1208.9,696.6,1207.6,701,1206.5,705.7z"/>
		<path class="st60" d="M1166.9,623.7l0.4-1.1c0,0-17.4,2.6-26.2,7c-8.8,4.4-25.7,27.2-25.7,27.2l22.1,29.2
			c0,22.4-3.6,62.3-3.6,62.3l10.1,5.8c2.7,1.6,6.1-0.4,6.2-3.5c0.3-15.2,1-51.1,1.3-68.6c0.5-22.4,16.5-58.7,16.5-58.7
			C1167.6,623.5,1167.3,623.6,1166.9,623.7z"/>
		<path class="st30" d="M1135.5,728.8c0,0,16.7,0.6,19.2,0c2.6-0.7,19.9-8.1,20.9-15.5c1-7.4-40.2,6.6-40.2,6.6V728.8z"/>
		<polygon class="st61" points="1187.1,705.7 1119.6,697.7 1150.1,722.6 		"/>
		<polygon class="st32" points="1150.1,722.6 1187.1,710 1187.1,705.7 1148.8,717.9 		"/>
		<g>
			<path class="st30" d="M1167.5,693.2c0,0-5.6,0-8.7-0.6c-2.4-0.5-8.4,0.2-10,1.5c-1.5,1.4-6.4,10.8-7.3,11.4
				c-0.9,0.6,0.5,1.9,2.1,1.2c0,0,1.5,4.1,5.2,2.6c3.7-1.6,6.2-4.9,8.1-5.5c1.9-0.6,13.1-3.6,13.1-3.6S1170.4,692.2,1167.5,693.2z"
				/>
		</g>
		<polygon class="st62" points="1170.6,618.8 1157.7,639.2 1151.5,643.1 1166,622.8 		"/>
		<polygon class="st59" points="1157.7,639.2 1166.9,643.1 1169.3,622.6 1170.6,618.8 		"/>
		<path class="st60" d="M1137.5,719.3c0,0-0.7,8.6,0,10.4c0,0-41.7-4.2-45.6-10c-3.9-5.8-3.7-12.9-3.7-12.9L1137.5,719.3z"/>
		<polygon class="st63" points="1150.1,722.6 1130.4,649.3 1055.4,641.4 1076,708.9 		"/>
		<polygon class="st62" points="1190.3,619.9 1173.8,639.8 1182.8,647.9 1192.6,624 		"/>
		<path class="st64" d="M1211.9,687c0,0-0.6,1.7-0.6,1.7c-0.4,1.3-0.9,2.6-1.3,4.1c-3.2,1-30.9-1-30.9-1S1202.3,686.4,1211.9,687z"
			/>
		<path class="st60" d="M1210.3,692.3c-4.5-0.3-11.8-0.8-17.7-0.8c-9.3,0-25.2,1-25.2,1l1.9,9.9c0,0,28.2,4.6,43.6,5.7l0,0
			c0,0,20.3,2.3,21.8-0.7c1.5-3-0.5-22.5-3.8-40c-3.3-17.5-6.7-27.6-10.7-33s-25.4-9.6-25.4-9.6l18.1,59.2c0,0,2.6,5.3,2.5,7.6
			c0,0.7-0.5,1-1.2,1.1c-0.5,0-1.5-0.1-2.8-0.2L1210.3,692.3z"/>
	</g>
</g>
</svg>
