<?xml version="1.0" encoding="utf-8"?>
<!-- Generator: Adobe Illustrator 23.0.3, SVG Export Plug-In . SVG Version: 6.00 Build 0)  -->
<svg version="1.1" id="Layer_1" xmlns="http://www.w3.org/2000/svg" xmlns:xlink="http://www.w3.org/1999/xlink" x="0px" y="0px"
	 viewBox="0 0 120.3 120" style="enable-background:new 0 0 120.3 120;" xml:space="preserve">
<style type="text/css">
	.st0{fill-rule:evenodd;clip-rule:evenodd;fill:#FD863B;}
</style>
<path class="st0" d="M90,119.8c-16.4,0-29.8-13.3-29.8-29.8S73.6,60.3,90,60.3s29.8,13.3,29.8,29.8S106.5,119.8,90,119.8z M90,67.6
	c-12.4,0-22.4,10-22.4,22.4s10,22.4,22.4,22.4s22.4-10,22.4-22.4S102.4,67.6,90,67.6z M106.2,87.2c0,0-15,15.3-17,16.9
	c-1.9,1.6-3.7,0.4-3.7,0.4L74.1,92.8c-1.6-1.9-0.8-3.4,0.4-4.8c1.9-2.3,4.2-0.5,4.2-0.5l8.7,8.7c0,0,11.6-11.9,13.6-14
	c2-2.2,3.9-0.2,5,1.1C107.8,85.3,106.2,87.2,106.2,87.2z M15.5,45.4h14.8v14.8H15.5V45.4z M30.3,82.4H15.5V67.6h14.8V82.4z
	 M90.3,37.8H8.1v52.4h44.7l-0.3,6.9H7.6c0,0-7.1-0.2-7.1-7.1s0-66.6,0-66.6s-0.6-7.7,11.1-7.7v5.7c0,0,0.9,5.4,6.9,5.4
	s8.2-2.3,8.2-5.9c0-3.5,0-5.4,0-5.4h44.6v5.6c0,0,0.5,5.7,7.7,5.7c0,0,7.2-0.6,7.2-6.2s0.6-5.2,0.6-5.2H90c0,0,6.8,0.3,6.8,6.8
	s0,30.4,0,30.4h-6.6L90.3,37.8L90.3,37.8z M78.9,23.2c-2.2,0-4-1.8-4-4v-15c0-2.2,1.8-4,4-4s4,1.8,4,4v15
	C82.9,21.4,81.1,23.2,78.9,23.2z M19.2,23.2c-2.2,0-4-1.8-4-4v-15c0-2.2,1.8-4,4-4s4,1.8,4,4v15C23.2,21.4,21.4,23.2,19.2,23.2z
	 M38.2,45.4H53v14.8H38.2V45.4z M53,82.4H38.2V67.6H53V82.4z M74.7,60.2H59.9V45.4h14.8C74.7,45.4,74.7,60.2,74.7,60.2z"/>
</svg>
