<?xml version="1.0" encoding="utf-8"?>
<!-- Generator: Adobe Illustrator 23.0.3, SVG Export Plug-In . SVG Version: 6.00 Build 0)  -->
<svg version="1.1" id="Layer_1" xmlns="http://www.w3.org/2000/svg" xmlns:xlink="http://www.w3.org/1999/xlink" x="0px" y="0px"
	 viewBox="0 0 70 70" style="enable-background:new 0 0 70 70;" xml:space="preserve">
<style type="text/css">
	.st0{fill-rule:evenodd;clip-rule:evenodd;fill:#FFFFFF;}
</style>
<g>
	<g>
		<path class="st0" d="M53.5,49.8c0-2.9,0-5.9,0-8.8c0-1.6,0.2-3.4-0.2-4.7c-0.5-1.5-1.5-2.7-2.7-3.5c-1.9-1.2-5.8-0.8-8.9-0.8
			c0-4.4,0.6-10.1-1.4-12.6c-2.2-2.9-7.6-2.1-12.6-2.1c-4.3,0-6.9-0.4-9.4,1.6c-2.1,1.7-1.8,5.4-1.8,9.3c0,7.2,0,14.4,0,21.6
			c-1,0-2,0-2.9,0c0,1,0,2,0,3c14.3,0,28.5,0,42.8,0c0-1,0-2,0-3C55.4,49.8,54.4,49.8,53.5,49.8z M38.7,29.3c0,6.8,0,13.7,0,20.5
			c-6.4,0-12.8,0-19.1,0c0-7.2,0-14.4,0-21.6c0-3.3-0.6-6.7,1.8-7.7c1.4-0.6,4.6-0.2,6.4-0.2c3,0,9-0.6,10.3,1
			C39.2,22.8,38.7,26.8,38.7,29.3z M50.5,40.2c0,3.2,0,6.4,0,9.6c-2.9,0-5.9,0-8.8,0c0-4.9,0-9.8,0-14.8c2.6,0,6.4-0.4,7.9,0.8
			C50.6,36.7,50.5,38.4,50.5,40.2z M22.5,27.7c2,0,3.9,0,5.9,0c0-1,0-2,0-3c-2,0-3.9,0-5.9,0C22.5,25.7,22.5,26.7,22.5,27.7z
			 M29.8,27.7c2,0,3.9,0,5.9,0c0-1,0-2,0-3c-2,0-3.9,0-5.9,0C29.8,25.7,29.8,26.7,29.8,27.7z M22.5,36.5c2,0,3.9,0,5.9,0
			c0-1,0-2,0-3c-2,0-3.9,0-5.9,0C22.5,34.5,22.5,35.5,22.5,36.5z M29.8,36.5c2,0,3.9,0,5.9,0c0-1,0-2,0-3c-2,0-3.9,0-5.9,0
			C29.8,34.5,29.8,35.5,29.8,36.5z M43.1,40.9c2,0,3.9,0,5.9,0c0-1,0-2,0-3c-2,0-3.9,0-5.9,0C43.1,39,43.1,39.9,43.1,40.9z
			 M22.5,45.4c2,0,3.9,0,5.9,0c0-1,0-2,0-3c-2,0-3.9,0-5.9,0C22.5,43.4,22.5,44.4,22.5,45.4z M29.8,45.4c2,0,3.9,0,5.9,0
			c0-1,0-2,0-3c-2,0-3.9,0-5.9,0C29.8,43.4,29.8,44.4,29.8,45.4z M43.1,46.8c2,0,3.9,0,5.9,0c0-1,0-2,0-2.9c-2,0-3.9,0-5.9,0
			C43.1,44.9,43.1,45.9,43.1,46.8z"/>
	</g>
</g>
</svg>
