<?xml version="1.0" encoding="utf-8"?>
<!-- Generator: Adobe Illustrator 23.0.3, SVG Export Plug-In . SVG Version: 6.00 Build 0)  -->
<svg version="1.1" id="Layer_1" xmlns="http://www.w3.org/2000/svg" xmlns:xlink="http://www.w3.org/1999/xlink" x="0px" y="0px"
	 viewBox="0 0 70 70" style="enable-background:new 0 0 70 70;" xml:space="preserve">
<style type="text/css">
	.st0{fill-rule:evenodd;clip-rule:evenodd;fill:#FFFFFF;}
</style>
<path class="st0" d="M51.4,46.5c-3.4,0-3.7,0-3.7,0s-1.7,0.3-1.7-1.7c0-1.9,0-16.2,0-16.2s-0.1-10.8-11.6-11c0,0-9.6,0.4-10.6,10.9
	c0,10.3,0,16.8,0,16.8s0.1,0.9-0.5,1c0,0-0.4,5.9,6.8,4.9c0,0-0.2-2.4,2.4-2.4s5.4,0,5.4,0S40,49,40,50.9c0,1.9-0.2,4.5-2.6,4.5
	c-2.4,0-5.2,0-5.2,0s-2.1-0.4-2.1-2.2h-2.8c0,0-5.7-0.2-5.7-6.6h-3.3c0,0-3.8,0-3.8-4.5c0-4.5,0-8.7,0-8.7s-0.2-4,6.3-4
	c0,0-0.9-14,14.8-14.8c1.9,0,13.3,2.1,13.4,14.9h2.4c0,0,4.1,0.2,4.1,4.7c0,4.5,0,8.2,0,8.2S54.8,46.5,51.4,46.5z M21,32.4
	c0,0-0.6,0-2.1,0s-1.3,1.3-1.3,1.3s0,7.2,0,8.4s1.4,1.4,1.4,1.4h2.1L21,32.4z M51.2,32.4c-1.5,0-2.1,0-2.1,0l0,11.2h2.1
	c0,0,1.4-0.2,1.4-1.4s0-8.4,0-8.4S52.7,32.4,51.2,32.4z"/>
</svg>
