<?xml version="1.0" encoding="utf-8"?>
<!-- Generator: Adobe Illustrator 23.0.3, SVG Export Plug-In . SVG Version: 6.00 Build 0)  -->
<svg version="1.1" id="Layer_1" xmlns="http://www.w3.org/2000/svg" xmlns:xlink="http://www.w3.org/1999/xlink" x="0px" y="0px"
	 viewBox="0 0 70 70" style="enable-background:new 0 0 70 70;" xml:space="preserve">
<style type="text/css">
	.st0{display:none;fill-rule:evenodd;clip-rule:evenodd;fill:#FFFFFF;}
	.st1{fill-rule:evenodd;clip-rule:evenodd;fill:#FFFFFF;}
</style>
<path class="st0" d="M20.3,43.1c0-1.9,1.5-3.4,3.4-3.4s3.4,1.5,3.4,3.4s-1.5,3.4-3.4,3.4S20.3,45,20.3,43.1z M50.2,43.1
	c0,1.9-1.5,3.4-3.4,3.4c-1.9,0-3.4-1.5-3.4-3.4s1.5-3.4,3.4-3.4C48.7,39.8,50.2,41.3,50.2,43.1z M56.8,34.5c0,0,0,11.6,0,16.8
	c0,5.2-5.1,5-5.1,5s-27.4,0-32.7,0c-5.3,0-5.2-4.7-5.2-4.7s0-13.1,0-17.4c0-4.3,4.4-4.4,4.4-4.4h8.7c0,0,0,0,0,0l-2.2,3.2h-4.3
	c0,0,0,3-3.3,3.4v13.3c0,0,3-0.1,3.3,3.3h13.3v-2.8h3.2v2.9h13.4c0,0-0.1-3.2,3.3-3.3c0-2.6,0-13.3,0-13.3s-3.2-0.1-3.3-3.3H37
	l2.3-3.2c5.2,0,10.7,0,13,0C57.3,30,56.8,34.5,56.8,34.5z M36.8,36.5l-2.3,0l2.3-3.1V36.5z M30.5,42.2c2.2-3,3.1-4.2,3.1-4.2v2h3.3
	V37c0,0,3.5,1.4,3.3,6.4c0,2.6-1.4,5.2-3.2,6c0-1.1,0-2.9,0-2.9h-3.4v2.9C33.5,49.4,29.6,47.3,30.5,42.2z M41.9,23.3
	c-0.7,0-1.3-0.1-1.9-0.4L27,41.3v-5.7l6.1-8.7l-2.8-4c-0.6,0.2-1.2,0.3-1.8,0.3c-2.7,0-4.9-2.2-4.9-4.9s2.2-4.9,4.9-4.9
	s4.9,2.2,4.9,4.9c0,0.9-0.2,1.8-0.7,2.5l2.3,3.3l2.4-3.5c-0.4-0.7-0.6-1.5-0.6-2.3c0-2.7,2.2-4.9,4.9-4.9s4.9,2.2,4.9,4.9
	S44.7,23.3,41.9,23.3z M28.6,16.6c-0.9,0-1.7,0.7-1.7,1.7s0.7,1.7,1.7,1.7s1.7-0.7,1.7-1.7S29.5,16.6,28.6,16.6z M41.9,16.6
	c-0.9,0-1.7,0.7-1.7,1.7S41,20,41.9,20s1.7-0.7,1.7-1.7S42.9,16.6,41.9,16.6z"/>
<path class="st1" d="M56.2,38.1c-1.3,1.3-1.8,1.8-1.8,1.8s-0.8,0.8-1.7-0.2s-4.1-4.1-4.1-4.1s-1.1-0.8-0.2-1.8
	c0.9-1,2.1-2.1,2.1-2.1s0.6-0.8,1.9,0.4c1.4,1.2,3.9,4.1,3.9,4.1S57.5,36.8,56.2,38.1z M40.8,37H20c-0.7,0-1.2-0.6-1.2-1.2
	c0-0.7,0.6-1.2,1.2-1.2h20.8c0.7,0,1.2,0.6,1.2,1.2C42,36.5,41.5,37,40.8,37z M40.8,26.1H20c-0.7,0-1.2-0.6-1.2-1.2s0.6-1.2,1.2-1.2
	h20.8c0.7,0,1.2,0.6,1.2,1.2S41.5,26.1,40.8,26.1z M40.8,31.4H20c-0.7,0-1.2-0.6-1.2-1.2c0-0.7,0.6-1.2,1.2-1.2h20.8
	c0.7,0,1.2,0.6,1.2,1.2C42,30.8,41.5,31.4,40.8,31.4z M52.1,40.7c0,0,0.9,0.8-0.2,1.9c-1.2,1.2-5.3,5.2-5.3,5.2v3.8
	c0,0,0.5,1.8-1.8,1.8c-2.2,0-3.9,0-3.9,0l-2.4,2.6l-6-6.1l7.3-7.3H20c-0.7,0-1.2-0.6-1.2-1.2c0-0.7,0.6-1.2,1.2-1.2h20.8
	c0.4,0,0.7,0.2,1,0.5l1.6-1.6V15.1H24.3v5.6c0,0,0.2,1.4-1.4,1.4c-1.6,0-6.1,0-6.1,0v28.2H32l-0.9,3.4H14.9c0,0-1.7,0.2-1.7-2.6
	c0-2.8,0-30.1,0-30.1s-0.1-0.7,0.8-1.5c0.9-0.8,7.9-7.8,7.9-7.8H45c0,0,1.6-0.4,1.6,1.6s0,22.7,0,22.7s0.8-0.3,1.2,0.3
	C48.3,36.8,52.1,40.7,52.1,40.7z M33.7,57.4l-3.9,0.9l1.2-4L33.7,57.4z"/>
</svg>
