<?xml version="1.0" encoding="utf-8"?>
<!-- Generator: Adobe Illustrator 23.0.3, SVG Export Plug-In . SVG Version: 6.00 Build 0)  -->
<svg version="1.1" id="Layer_1" xmlns="http://www.w3.org/2000/svg" xmlns:xlink="http://www.w3.org/1999/xlink" x="0px" y="0px"
	 viewBox="0 0 111.4 120" style="enable-background:new 0 0 111.4 120;" xml:space="preserve">
<style type="text/css">
	.st0{fill-rule:evenodd;clip-rule:evenodd;fill:#FD863B;}
</style>
<g>
	<g>
		<path class="st0" d="M41.6,106H13.8V13.6c0,0,24.4,0.1,27.3,0.1c2.9,0,7.3-0.9,7.3-7.3C48.4,0.1,42,0,42,0S15.1,0,7.6,0
			S0,7.2,0,7.2s0,99.4,0,106s6.7,6.7,6.7,6.7s27.1,0,34.8,0s7-7,7-7C48.5,105.8,41.6,106,41.6,106z M109.4,55.3
			c-4.5-4-24.7-22.1-24.7-22.1s-6.1-3.1-9,1.5c-1.8,2.9-2.6,6.1,0,8.7C78.4,46,86.2,53,86.2,53H43.1c0,0-6.2,0-6.2,6.2
			s3.7,7.5,6.1,7.5c2.4,0,43.1,0,43.1,0L76,76.1c0,0-4.6,4.1-0.3,8.7c2.4,2.6,6.1,4.2,9.2,1.6s24.4-21.9,24.4-21.9
			S113.9,59.4,109.4,55.3z"/>
	</g>
</g>
</svg>
