<?xml version="1.0" encoding="utf-8"?>
<!-- Generator: Adobe Illustrator 23.0.3, SVG Export Plug-In . SVG Version: 6.00 Build 0)  -->
<svg version="1.1" id="Layer_1" xmlns="http://www.w3.org/2000/svg" xmlns:xlink="http://www.w3.org/1999/xlink" x="0px" y="0px"
	 viewBox="0 0 70 70" style="enable-background:new 0 0 70 70;" xml:space="preserve">
<style type="text/css">
	.st0{fill-rule:evenodd;clip-rule:evenodd;fill:#FFFFFF;}
</style>
<path class="st0" d="M45,33c-4.3,3.7-5.7,4.9-5.8,5.6c-0.1,1.2-0.4,5.6-0.4,5.6s0.2,0.7-1.2,0.9c-1.4,0.1-5.2,0-5.2,0
	s-1.7,0.5-1.7-1.3c0-1.8-0.6-8.1,2.3-10.8c2.9-2.8,6.2-5.6,6.2-5.6s2.3-2.2,0.1-4.6c-1.5-1.2-4.4-2.4-7.3-0.7
	c-1.2,0.9-2.1,2-2.4,3.8c-0.4,1.1-0.4,1.5-2,1.4c-1.6-0.2-5.4-0.7-5.4-0.7s-1.5,0-0.9-2.5c0.7-2.5,1.9-8.5,11.3-9.9
	c4.5-0.4,10.6,0.1,14.8,6C49.4,23.1,50.1,28.4,45,33z M34.9,47.5c2.3,0,4.2,1.9,4.2,4.2c0,2.3-1.9,4.2-4.2,4.2
	c-2.3,0-4.2-1.9-4.2-4.2C30.6,49.4,32.5,47.5,34.9,47.5z"/>
</svg>
