<?xml version="1.0" encoding="utf-8"?>
<!-- Generator: Adobe Illustrator 23.0.3, SVG Export Plug-In . SVG Version: 6.00 Build 0)  -->
<svg version="1.1" id="Layer_1" xmlns="http://www.w3.org/2000/svg" xmlns:xlink="http://www.w3.org/1999/xlink" x="0px" y="0px"
	 viewBox="0 0 70 70" style="enable-background:new 0 0 70 70;" xml:space="preserve">
<style type="text/css">
	.st0{fill-rule:evenodd;clip-rule:evenodd;fill:#FFFFFF;}
</style>
<g>
	<g>
		<path class="st0" d="M54,34.4c2.3-4.7,3.9-8.9,0.3-14c-2.4-3.4-7.9-6.5-14.1-4.9c-0.9,0.2-5.3,2.5-5.3,2.5
			c-0.5-0.4-0.9-0.8-1.4-1.1c-2.1-1.2-5.9-2.3-9.3-1.6c-6.1,1.2-12.4,6.7-10.3,15c0.6,2.2,2.4,3.7,2.9,5.3c0.5,1.4-0.1,2.6,0.8,3.8
			c1.2,1.7,2.4,0.9,3.6,1.8c0.1,0.5,0.2,1,0.3,1.5c0.6,1.7,2.1,3,4.4,3.1c0.2,2.8,1.9,4.3,4.6,4.6c0.1,2.8,2.6,5.4,5.9,4.4
			c1.5-0.4,3.2-2.1,4-3.3c0.2-0.4,0.3-0.8,0.5-1.1c0.6-0.1,1.3-0.2,1.9-0.3c1.7-0.6,2.9-2.2,3-4.4c2.6-0.1,4.5-1.8,4.5-4.5
			c2.5-0.1,5.1-1.9,4.4-5.1C54.5,35.5,54.3,35,54,34.4z M22,37.9c-0.6,0.1-1.1,0.1-1.5-0.3c-0.6-0.3-0.7-0.8-0.6-1.8l2.4-2.4h1.3
			c0.3,0.4,0.6,0.8,0.9,1.1C24.3,36.2,23,37.2,22,37.9z M26.5,42.4c-0.7,0.3-1.3,0-1.8-0.3c-0.8-2.1,0.9-3.1,2.3-4.1
			c0.5,0.1,0.9,0.2,1.4,0.3c0.2,0.3,0.4,0.7,0.6,1C28.9,40.7,27.5,42,26.5,42.4z M31,47.1c-1,0.5-1.7-0.3-2-1
			c0.1-1.8,1.4-2.5,2.5-3.4C35.4,42.5,32.4,46.5,31,47.1z M35.3,51.7c-0.4,0.1-0.7,0-1-0.3c-0.5-0.3-0.5-0.4-0.6-1
			c-0.4-1.3,1.7-2.7,2.6-3.3c0.3,0.1,0.7,0.2,1,0.3c0.5,0.3,0.6,0.5,0.9,1C38.1,49.9,36.6,51.5,35.3,51.7z M51.5,37.6
			c-0.3,0.2-0.7,0.4-1,0.6c-1.8-0.1-5.2-3.6-5.8-4.9c-0.3-0.3-0.7-0.6-1-0.9c-0.3,0.2-0.5,0.4-0.8,0.6l-1.4,1.4
			c1.9,2.1,3.8,4.3,5.6,6.4c-0.1,0.4-0.2,0.8-0.3,1.3c-0.5,0.3-1,0.4-1.8,0.6c-2.6-1-3.9-4-6-5.6c-0.3,0.2-0.5,0.3-0.8,0.5
			c-0.5,0.5-1,1.1-1.5,1.6c1.9,2,3.8,4,5.6,6c0,1.3-0.3,1.6-1.1,2c-1.9-0.4-1.6-2.9-4.9-3c-0.2-2.7-1.8-4.5-4.6-4.6
			c0-2.7-1.8-4.5-4.5-4.5c-0.6-4.7-4-5.3-7.8-3.5c-0.4,0.4-0.8,0.8-1.3,1.3c-0.5-1.2-1.3-2.3-1.6-3.8c-1.3-6.1,3.6-9.9,8.1-10.8
			c3.2-0.6,5.5,0.8,7.4,1.5l0.4,0.5c-1.8,2.1-7,4.7-4.8,9.1c0.6,1.2,1.6,2.2,3,2.5c5.3,1.3,6.9-7,10.8-6c1.1,0.3,9.3,8.8,9.9,10
			C51.9,36.5,51.7,37.1,51.5,37.6z M52.3,31.6c-0.1,0-0.2,0.1-0.3,0.1c-2.9-2.2-7.6-10.7-13-8.5c-2.8,1.1-4,4.4-6.8,5.8
			c-0.9-0.1-1.2-0.3-1.6-0.9c0-0.1-0.1-0.3-0.1-0.4c0.1-1.7,6.2-7.3,7.6-8.1c1.2-0.7,2.6-0.7,4-1.3C51.1,18.1,54.9,23.7,52.3,31.6z"
			/>
	</g>
</g>
</svg>
