<?xml version="1.0" encoding="utf-8"?>
<!-- Generator: Adobe Illustrator 23.0.3, SVG Export Plug-In . SVG Version: 6.00 Build 0)  -->
<svg version="1.1" id="Layer_1" xmlns="http://www.w3.org/2000/svg" xmlns:xlink="http://www.w3.org/1999/xlink" x="0px" y="0px"
	 viewBox="0 0 70 70" style="enable-background:new 0 0 70 70;" xml:space="preserve">
<style type="text/css">
	.st0{fill-rule:evenodd;clip-rule:evenodd;fill:#FFFFFF;}
</style>
<path class="st0" d="M51.4,37.6H49c-0.4,2-1.2,3.9-2.3,5.5l1.7,1.7c0.6,0.6,0.6,1.6,0,2.1l-1.5,1.5c-0.6,0.6-1.6,0.6-2.1,0L43,46.7
	c-1.6,1.1-3.5,1.9-5.5,2.2v2.4c0,0.8-0.7,1.5-1.5,1.5h-2.1c-0.8,0-1.5-0.7-1.5-1.5v-2.4c-2-0.4-3.8-1.2-5.4-2.3l-1.8,1.8
	c-0.6,0.6-1.6,0.6-2.1,0l-1.5-1.5c-0.6-0.6-0.6-1.6,0-2.1l1.8-1.8c-1.1-1.6-1.9-3.4-2.2-5.4h-2.5c-0.8,0-1.5-0.7-1.5-1.5v-2.1
	c0-0.8,0.7-1.5,1.5-1.5h2.5c0.4-2,1.1-3.8,2.2-5.4l-1.8-1.8c-0.6-0.6-0.6-1.6,0-2.1l1.5-1.5c0.6-0.6,1.6-0.6,2.1,0l1.8,1.8
	c1.6-1.1,3.4-1.9,5.4-2.3v-2.5c0-0.8,0.7-1.5,1.5-1.5h2.1c0.8,0,1.5,0.7,1.5,1.5v2.5c2,0.4,3.8,1.1,5.4,2.2l1.7-1.7
	c0.6-0.6,1.6-0.6,2.1,0l1.5,1.5c0.6,0.6,0.6,1.6,0,2.1L46.7,27c1.1,1.6,1.9,3.5,2.3,5.5h2.4c0.8,0,1.5,0.7,1.5,1.5v2.1
	C52.9,36.9,52.2,37.6,51.4,37.6z M35.1,25.5c-5.2,0-9.5,4.3-9.5,9.5s4.3,9.5,9.5,9.5s9.5-4.3,9.5-9.5S40.3,25.5,35.1,25.5z M29,35.4
	l2.4-2.2l2.1,2.1l5.4-5l2.2,2l-7.7,7.5L29,35.4z"/>
</svg>
