<?xml version="1.0" encoding="utf-8"?>
<!-- Generator: Adobe Illustrator 23.0.3, SVG Export Plug-In . SVG Version: 6.00 Build 0)  -->
<svg version="1.1" id="Layer_1" xmlns="http://www.w3.org/2000/svg" xmlns:xlink="http://www.w3.org/1999/xlink" x="0px" y="0px"
	 viewBox="0 0 70 70" style="enable-background:new 0 0 70 70;" xml:space="preserve">
<style type="text/css">
	.st0{fill-rule:evenodd;clip-rule:evenodd;fill:#FFFFFF;}
</style>
<g>
	<g>
		<path class="st0" d="M54.9,15.4c-0.8-0.5-2-0.6-3.4-0.6c-1,0.4-5,1-6.1,1.1c0.5,5,4.2,7.5,8.6,8.8h0.3
			C54.7,22,55.8,18.4,54.9,15.4z M44.3,20.3c-0.4-1.2-0.9-2.4-1.3-3.5c-1.8,1-3.5,1.9-5.3,2.9C33,23,29.2,27.1,25.9,31.9
			c-0.7,1.1-1.4,2.1-2,3.2c0.8,0.9,1.7,1.7,2.5,2.6c5.5-1.1,7.2,0.4,6.1,6c0.9,0.9,1.7,1.8,2.6,2.7c2.1-0.6,4.1-2.6,5.7-3.8
			c4.2-3.2,11.4-9.8,12.7-15.6C49.1,26.5,46,23.4,44.3,20.3z M41.9,35.1c-4.6,1-8-3.6-6.7-7.6c0.8-2.6,2.5-3.1,4.9-4.1
			C48.3,23.2,48.7,33.7,41.9,35.1z M40.4,25.7c-1.2,0.5-2.3,0.8-2.8,2c-1.2,2.6,0.9,5.8,3.9,5.1C45.5,32,45.2,25.6,40.4,25.7z
			 M20.8,35.6c1.4-2.7,3.3-5.1,4.9-7.5c-0.5-0.1-0.9-0.2-1.4-0.3c-1.1,0.4-2.2,0.4-3.2,0.8c-1.5,0.8-6,4.6-6.4,6.2
			c0.1,0.2,0.2,0.4,0.4,0.7C15.8,36.7,19.2,35.2,20.8,35.6z M21.3,42.4c0.5-0.6,1.1-1.2,1.6-1.9c0.5-0.5,1.1-1.1,1.6-1.6l-1.9-1.9
			c-0.5,1.3-2.3,3-1.9,4.7v0.2C20.9,42.1,21.1,42.3,21.3,42.4z M29.8,43.7c0.6-0.8,1.6-3.3,0.3-4c-0.3-0.3-0.7-0.3-1.3-0.3
			c-3.5,1.7-5.5,3.9-7.5,7c-0.6,0.8-1.8,2.1-1.6,3.4c0.2,0.2,0.4,0.5,0.7,0.7C22.4,50.9,28.7,45.2,29.8,43.7z M34.5,49.4
			c0.3,1.7-0.6,3.6-0.2,5.1c0.2,0.2,0.4,0.4,0.6,0.7h0.9c1.5-0.7,8.2-7.6,6.1-10.6C40.8,46,36.4,48.8,34.5,49.4z M27.7,48.7
			L27.7,48.7c0.3,0.3,0.6,0.6,0.9,0.8c1.8-0.1,2.8-1.4,4.3-1.9c0-0.1,0.1-0.1,0.1-0.2c-0.7-0.6-1.3-1.2-2-1.9
			C30.3,46.7,28.9,48.2,27.7,48.7z"/>
	</g>
</g>
</svg>
