<?xml version="1.0" encoding="utf-8"?>
<!-- Generator: Adobe Illustrator 23.0.3, SVG Export Plug-In . SVG Version: 6.00 Build 0)  -->
<svg version="1.1" id="Layer_1" xmlns="http://www.w3.org/2000/svg" xmlns:xlink="http://www.w3.org/1999/xlink" x="0px" y="0px"
	 viewBox="0 0 70 70" style="enable-background:new 0 0 70 70;" xml:space="preserve">
<style type="text/css">
	.st0{fill-rule:evenodd;clip-rule:evenodd;fill:#FFFFFF;}
</style>
<g>
	<g>
		<path class="st0" d="M29.6,28.1c0.2,0.4,0.3,0.5,0.6,0.9c0.3,0.4,0.3,0.4,0.4,0.8c0.1,0.3,0.3,0.9,0.5,1.6
			c0.2,0.7-0.2,2.3-0.2,2.3s-4.1,2.9-6.2,4.1c-2.1,1.2-1.5,3.2-1.5,4.5c0,1.3,0.9,1.1,0.9,1.1h9.5c0,0,0.6-2.8,0.9-4.1
			c-0.4-0.4-0.8-0.7-1-1.5c0-1.3,1-1.5,1.9-1.5c1,0,1.3,0.8,1.2,1.6c0,1.2-0.9,1.6-0.9,1.6l0.9,3.9c0,0,6.8,0,8.8,0s1.6-1,1.6-2.4
			c0.1-3.6-6.2-6.2-7-6.8c-0.8-0.5-0.8-0.5-1.2-0.8s0-2.2,0-2.6s-0.3-1,0.6-1.4c1,0,1.5-3.1,1.5-3.1s-0.4-0.4-0.3-0.8
			c0-0.3,0.1-0.8,0.2-1.6c0-1.6-0.6-2.9-1.6-3.5c-1.1-1-2.6-2.8-6-1.8c-5,1.6-3.4,6.9-3.4,6.9s-0.4,0.3-0.6,0.4s0,0.6,0,0.9
			C29.3,27.2,29.4,27.7,29.6,28.1z M54.4,46.7V25.3c0,0,0-3.2-2.9-3.2s-8.1,0-8.1,0l0.7,3.9h6v20.7H39.7c0,0,0.1,1.3-1.3,1.3
			c-1.5,0-3.1,0-3.2,0c0,0-1.7,0-3.2,0c-1.5,0-1.3-1.3-1.3-1.3H20.2V25.9h6l0.7-3.9c0,0-5.2,0-8.1,0s-2.9,3.2-2.9,3.2v21.5h-2.8
			c0,5.5,3.1,5.2,3.1,5.2h19h0h19c0,0,3.1,0.3,3.1-5.2H54.4z"/>
	</g>
</g>
</svg>
